<?xml version="1.0" encoding="utf-8"?>
<svg viewBox="0 0 500 500" xmlns="http://www.w3.org/2000/svg">
  <ellipse style="paint-order: fill; fill: rgb(29, 121, 150);" cx="250" cy="250" rx="250" ry="250"/>
  <g style="" transform="matrix(1.098925, 0, 0, 1.098925, -24.218102, -30.996019)">
    <rect x="100" y="192.154" width="297.895" height="184.132" style="stroke: rgb(0, 0, 0); fill: rgb(255, 255, 255); opacity: 0.9;"/>
    <path d="M 397.368 192.153 C 397.261 192.153 397.155 192.117 397.067 192.049 L 251.51 79.82 C 250.604 79.124 249.4 79.125 248.496 79.825 L 103.986 192.048 C 103.655 192.305 103.196 192.069 103.159 191.622 C 103.143 191.414 103.229 191.214 103.382 191.094 L 247.892 78.871 C 249.159 77.891 250.842 77.888 252.112 78.863 L 397.67 191.093 C 398.002 191.35 397.959 191.907 397.592 192.098 C 397.521 192.135 397.446 192.153 397.368 192.153 Z" style="fill: rgb(205, 201, 244);"/>
    <polygon points="100 196.131 248.383 82.982 397.895 204.183 256.03 290.714 179.009 272.651 100 196.131" fill="#e6e6e6" style=""/>
    <path d="M 191.714 344.159 L 123.587 344.159 C 121.138 344.163 119.601 341.229 120.824 338.878 C 121.394 337.784 122.448 337.111 123.587 337.111 L 191.714 337.111 C 194.164 337.108 195.698 340.043 194.476 342.394 C 193.907 343.488 192.854 344.162 191.714 344.159 Z" style="fill: rgb(46, 186, 201);"/>
    <path d="M 148.029 329.01 L 123.587 329.01 C 121.138 329.013 119.601 326.079 120.824 323.727 C 121.394 322.635 122.448 321.96 123.587 321.962 L 148.029 321.962 C 150.479 321.959 152.015 324.893 150.792 327.244 C 150.224 328.337 149.17 329.012 148.029 329.01 Z" style="fill: rgb(46, 186, 201);"/>
    <path d="M 252.084 259.155 C 251.567 259.155 251.054 259.053 250.575 258.854 L 165.527 222.987 L 165.527 110.719 C 165.529 108.651 167.177 106.976 169.211 106.974 L 332.369 106.974 C 334.402 106.976 336.051 108.651 336.053 110.719 L 336.053 223.066 L 335.893 223.135 L 253.64 258.837 C 253.148 259.047 252.619 259.155 252.084 259.155 Z" fill="#fff" style=""/>
    <path d="M 252.084 259.446 C 251.532 259.447 250.985 259.339 250.474 259.127 L 165.264 223.247 L 165.264 110.979 C 165.266 108.768 167.031 106.976 169.211 106.974 L 332.369 106.974 C 334.548 106.976 336.314 108.768 336.316 110.979 L 336.316 223.324 L 253.744 259.106 C 253.219 259.331 252.654 259.447 252.084 259.446 Z M 166.317 222.534 L 250.875 258.138 C 251.664 258.464 252.548 258.458 253.333 258.124 L 335.264 222.618 L 335.264 110.979 C 335.261 109.357 333.967 108.044 332.369 108.042 L 169.211 108.042 C 167.613 108.044 166.317 109.357 166.317 110.979 L 166.317 222.534 Z" fill="#3f3d56" style=""/>
    <path d="M 396.316 190.988 L 396.211 190.988 L 335.789 219.552 L 253.122 258.634 C 252.469 258.938 251.734 258.941 251.079 258.646 L 165.79 219.47 L 103.884 191.034 L 103.789 190.988 L 103.684 190.988 C 101.65 190.99 100.003 192.815 100 195.068 L 100 372.206 C 100.003 374.459 101.65 376.284 103.684 376.286 L 396.316 376.286 C 398.35 376.284 399.997 374.459 400 372.206 L 400 195.068 C 399.997 192.815 398.35 190.99 396.316 190.988 Z M 398.947 372.206 C 398.947 373.817 397.769 375.12 396.316 375.121 L 103.684 375.121 C 102.232 375.12 101.053 373.817 101.053 372.206 L 101.053 195.068 C 101.056 193.502 102.172 192.216 103.584 192.153 L 165.79 220.729 L 250.674 259.723 C 251.593 260.137 252.622 260.131 253.536 259.706 L 335.789 220.816 L 396.421 192.153 C 397.832 192.221 398.943 193.504 398.947 195.068 L 398.947 372.206 Z" style="fill: rgb(25, 28, 97);"/>
    <path d="M 245.979 226.999 C 242.84 227.005 239.783 226.019 237.271 224.188 L 237.115 224.074 L 204.32 199.675 C 195.418 193.046 197.237 179.538 207.596 175.36 C 212.404 173.421 217.911 174.121 222.043 177.198 L 243.285 193.026 L 293.484 129.408 C 298.38 123.204 307.527 122.029 313.913 126.788 L 313.601 127.2 L 313.921 126.794 C 320.297 131.557 321.505 140.438 316.617 146.646 L 257.572 221.473 C 254.804 224.969 250.518 227.011 245.979 226.999 Z" style="fill: rgb(46, 186, 201);"/>
  </g>
</svg>