<?xml version="1.0" encoding="utf-8"?>
<svg viewBox="0 0 1110 720" xmlns="http://www.w3.org/2000/svg">
  <path d="M 705.42 713.779 C 704.592 714.521 703.739 715.245 702.875 715.959 L 598.155 715.959 C 597.553 715.245 596.95 714.521 596.359 713.779 C 591.524 707.684 587.267 701.107 583.65 694.142 C 575.052 677.864 572.09 656.524 572.09 634.79 C 572.09 633.463 572.1 632.135 572.124 630.808 C 572.221 624.71 572.545 618.605 573.022 612.597 C 573.111 611.555 573.197 610.521 573.293 609.486 C 574.069 600.869 575.158 592.485 576.396 584.649 C 576.55 583.65 576.708 582.662 576.873 581.683 C 579.394 566.118 582.774 550.72 586.996 535.569 C 586.996 535.569 587.135 535.606 587.404 535.678 C 588.179 535.907 590.035 536.448 592.762 537.298 C 600.27 539.643 614.374 544.367 630.637 551.389 C 631.525 551.763 632.423 552.158 633.329 552.559 C 647.087 558.522 660.405 565.551 673.17 573.589 C 673.964 574.092 674.748 574.606 675.532 575.119 L 675.532 575.191 L 673.817 633.572 L 689.148 584.969 C 692.275 587.468 695.261 590.058 698.112 592.742 C 698.895 593.474 699.679 594.225 700.437 595.004 C 706.909 601.236 712.433 608.477 716.813 616.471 C 739.748 659.93 730.123 691.88 705.42 713.779 Z" style="fill: rgb(49, 199, 216);"/>
  <path d="M 690.657 715.959 L 687.866 715.959 C 687.85 715.234 687.825 714.511 687.779 713.779 C 686.656 691.816 677.692 667.564 665.489 644.155 C 665.054 643.305 664.609 642.434 664.137 641.583 C 658.215 630.451 651.611 619.556 644.792 609.202 C 644.268 608.396 643.729 607.582 643.189 606.777 C 634.112 593.164 624.74 580.565 616.271 569.807 C 615.679 569.04 615.07 568.288 614.47 567.547 C 601.915 551.728 591.559 540.202 587.404 535.678 C 586.786 535.01 586.307 534.498 585.975 534.142 C 585.67 533.792 585.488 533.609 585.455 533.573 L 586.43 532.547 L 586.438 532.52 L 587.433 531.495 C 587.466 531.54 588.066 532.145 589.128 533.308 C 590.026 534.269 591.254 535.615 592.762 537.298 C 598.024 543.159 606.725 553.128 616.794 565.771 C 617.377 566.504 617.981 567.262 618.58 568.023 C 625.454 576.747 632.902 586.635 640.28 597.264 C 642.136 599.936 643.933 602.59 645.679 605.22 C 646.229 606.025 646.769 606.83 647.291 607.636 C 654.669 618.823 661.112 629.584 666.621 639.917 L 667.998 642.507 C 682.04 669.423 689.602 693.263 690.576 713.779 C 690.609 714.511 690.636 715.234 690.657 715.959 Z" fill="#fff" style=""/>
  <path d="M 632.169 549.246 C 631.673 549.969 631.168 550.683 630.637 551.389 C 626.641 556.798 621.988 561.634 616.794 565.771 C 616.037 566.358 615.262 566.961 614.47 567.547 C 612.308 569.132 610.069 570.6 607.761 571.941 C 598.259 577.503 587.718 580.827 576.873 581.683 C 576.525 581.719 576.168 581.746 575.818 581.765 C 575.66 582.744 575.514 583.724 575.349 584.722 C 575.697 584.703 576.047 584.685 576.396 584.649 C 587.885 583.863 599.061 580.401 609.122 574.513 C 611.582 573.08 613.97 571.508 616.271 569.807 C 617.056 569.232 617.824 568.626 618.58 568.023 C 624.135 563.589 629.096 558.388 633.329 552.559 C 633.833 551.857 634.33 551.142 634.818 550.428 C 633.912 550.024 633.032 549.63 632.169 549.246 Z" fill="#fff" style=""/>
  <path d="M 674.121 571.521 C 673.817 572.215 673.495 572.902 673.17 573.589 C 666.96 586.597 657.445 597.544 645.679 605.22 C 644.861 605.76 644.034 606.282 643.189 606.777 C 642.936 606.931 642.667 607.096 642.414 607.243 C 621.073 619.689 595.324 620.525 573.293 609.486 C 573.033 609.357 572.779 609.23 572.526 609.102 C 572.43 610.145 572.342 611.189 572.274 612.242 C 572.518 612.362 572.77 612.489 573.022 612.597 C 595.678 623.574 621.954 622.542 643.765 609.816 C 644.113 609.614 644.452 609.412 644.792 609.202 C 645.635 608.69 646.474 608.168 647.291 607.636 C 659.349 599.737 669.118 588.516 675.532 575.191 C 675.871 574.504 676.193 573.809 676.508 573.103 C 675.714 572.573 674.923 572.041 674.121 571.521 Z" fill="#fff" style=""/>
  <path d="M 698.572 590.663 C 698.426 591.359 698.276 592.053 698.112 592.742 C 693.629 612.067 682.387 628.91 666.621 639.917 C 665.809 640.495 664.975 641.043 664.137 641.583 C 663.242 642.151 662.344 642.718 661.421 643.25 C 632.292 660.195 596.048 655.145 572.124 630.808 C 571.925 630.614 571.734 630.414 571.541 630.213 C 571.541 631.576 571.532 632.922 571.553 634.277 C 571.725 634.451 571.907 634.625 572.09 634.79 C 596.965 658.474 633.416 662.908 662.78 645.821 C 663.705 645.291 664.609 644.742 665.489 644.155 C 666.343 643.624 667.169 643.075 667.998 642.507 C 683.986 631.389 695.533 614.484 700.436 595.004 C 700.602 594.342 700.768 593.684 700.916 593.016 C 700.158 592.21 699.364 591.451 698.572 590.663 Z" fill="#fff" style=""/>
  <path d="M 625.54 441.584 L 129.471 441.584 L 129.471 50.43 L 625.54 50.43 L 625.54 441.584 Z" style="fill: rgba(255, 255, 255, 0);"/>
  <circle cx="203.237" cy="100.784" r="18.643" style="paint-order: stroke; fill: rgb(29, 121, 150);" transform="matrix(1.05917, 0, 0, 1.113168, 34.413792, -0.877285)"/>
  <path d="M 295.281 97.478 C 292.748 97.482 291.169 100.368 292.44 102.672 C 293.028 103.736 294.11 104.393 295.281 104.395 L 535.563 104.395 C 538.099 104.391 539.676 101.505 538.406 99.202 C 537.817 98.138 536.735 97.48 535.563 97.478 L 295.281 97.478 Z" style="fill: rgb(46, 186, 201);"/>
  <path d="M 295.281 118.23 C 292.748 118.225 291.159 121.105 292.421 123.413 C 293.007 124.484 294.092 125.146 295.267 125.148 L 447.177 125.148 C 449.711 125.152 451.299 122.273 450.035 119.965 C 449.447 118.891 448.357 118.228 447.177 118.23 L 295.281 118.23 Z" style="fill: rgb(49, 199, 216);"/>
  <path d="M 625.54 441.584 L 129.471 441.584 L 129.471 50.43 L 625.54 50.43 L 625.54 441.584 Z M 135.023 435.75 L 619.988 435.75 L 619.988 56.265 L 135.023 56.265 L 135.023 435.75 Z" style="fill: rgba(29, 122, 150, 0.71);"/>
  <path d="M 157.196 169.715 L 157.196 402.367 L 597.812 402.367 L 597.812 169.715 L 157.196 169.715 Z M 595.695 227.322 L 488.188 227.322 L 488.188 171.942 L 595.695 171.942 L 595.695 227.322 Z M 378.564 227.322 L 378.564 171.942 L 486.071 171.942 L 486.071 227.322 L 378.564 227.322 Z M 486.071 229.548 L 486.071 284.928 L 378.564 284.928 L 378.564 229.548 L 486.071 229.548 Z M 376.445 227.322 L 268.939 227.322 L 268.939 171.942 L 376.445 171.942 L 376.445 227.322 Z M 376.445 229.548 L 376.445 284.928 L 268.939 284.928 L 268.939 229.548 L 376.445 229.548 Z M 266.821 284.928 L 159.316 284.928 L 159.316 229.548 L 266.821 229.548 L 266.821 284.928 Z M 266.821 287.154 L 266.821 342.536 L 159.316 342.536 L 159.316 287.154 L 266.821 287.154 Z M 268.939 287.154 L 376.445 287.154 L 376.445 342.536 L 268.939 342.536 L 268.939 287.154 Z M 376.445 344.761 L 376.445 400.14 L 268.939 400.14 L 268.939 344.761 L 376.445 344.761 Z M 378.564 344.761 L 486.071 344.761 L 486.071 400.14 L 378.564 400.14 L 378.564 344.761 Z M 378.564 342.536 L 378.564 287.154 L 486.071 287.154 L 486.071 342.536 L 378.564 342.536 Z M 488.188 287.154 L 595.695 287.154 L 595.695 342.536 L 488.188 342.536 L 488.188 287.154 Z M 488.188 284.928 L 488.188 229.548 L 595.695 229.548 L 595.695 284.928 L 488.188 284.928 Z M 266.821 171.942 L 266.821 227.322 L 159.316 227.322 L 159.316 171.942 L 266.821 171.942 Z M 159.316 344.761 L 266.821 344.761 L 266.821 400.14 L 159.316 400.14 L 159.316 344.761 Z M 488.188 400.14 L 488.188 344.761 L 595.695 344.761 L 595.695 400.14 L 488.188 400.14 Z" fill="#e4e4e4" style=""/>
  <path d="M 338.074 232.305 L 294.231 231.264 C 289.847 213.408 291.821 196.409 295.321 180.743 L 339.162 181.787 C 334.728 198.257 334.351 215.642 338.074 232.305 Z" style="fill: rgb(49, 199, 216);"/>
  <polygon points="302.832 191.91 302.855 190.156 325.57 191.009 325.545 192.762 302.832 191.91" fill="#fff" style=""/>
  <polygon points="302.737 198.921 302.76 197.169 325.473 198.023 325.448 199.776 302.737 198.921" fill="#fff" style=""/>
  <polygon points="302.641 205.936 302.665 204.182 325.376 205.036 325.355 206.789 302.641 205.936" fill="#fff" style=""/>
  <polygon points="302.544 212.948 302.569 211.195 325.283 212.049 325.257 213.802 302.544 212.948" fill="#fff" style=""/>
  <polygon points="302.45 219.961 302.473 218.207 325.186 219.063 325.164 220.815 302.45 219.961" fill="#fff" style=""/>
  <path d="M 242.747 361.433 L 198.906 360.39 C 194.52 342.538 196.495 325.536 199.995 309.873 L 243.836 310.915 C 239.402 327.385 239.027 344.769 242.747 361.433 Z" style="fill: rgb(228, 228, 228);"/>
  <polygon points="207.507 321.036 207.53 319.283 230.244 320.137 230.22 321.89 207.507 321.036" fill="#fff" style=""/>
  <polygon points="207.412 328.051 207.434 326.297 230.147 327.151 230.124 328.904 207.412 328.051" fill="#fff" style=""/>
  <polygon points="207.315 335.062 207.34 333.31 230.051 334.163 230.029 335.915 207.315 335.062" fill="#fff" style=""/>
  <polygon points="207.22 342.076 207.242 340.321 229.957 341.177 229.932 342.93 207.22 342.076" fill="#fff" style=""/>
  <polygon points="207.125 349.089 207.147 347.336 229.861 348.189 229.838 349.942 207.125 349.089" fill="#fff" style=""/>
  <path d="M 471.53 302.435 L 427.687 301.392 C 423.303 283.539 425.277 266.539 428.775 250.874 L 472.618 251.917 C 468.183 268.386 467.808 285.771 471.53 302.435 Z" style="fill: rgb(228, 228, 228);"/>
  <polygon points="436.288 262.039 436.31 260.286 459.025 261.139 458.999 262.892 436.288 262.039" fill="#fff" style=""/>
  <polygon points="436.191 269.052 436.216 267.299 458.927 268.152 458.905 269.906 436.191 269.052" fill="#fff" style=""/>
  <polygon points="436.097 276.066 436.119 274.312 458.833 275.167 458.809 276.918 436.097 276.066" fill="#fff" style=""/>
  <polygon points="436 283.077 436.025 281.324 458.737 282.178 458.713 283.932 436 283.077" fill="#fff" style=""/>
  <polygon points="435.907 290.09 435.927 288.338 458.643 289.192 458.618 290.945 435.907 290.09" fill="#fff" style=""/>
  <path d="M 452.464 291.305 L 408.622 290.26 C 404.236 272.407 406.212 255.407 409.711 239.742 L 453.553 240.784 C 449.119 257.255 448.742 274.64 452.464 291.305 Z" style="fill: rgb(46, 186, 201);"/>
  <polygon points="417.222 250.907 417.246 249.154 439.959 250.007 439.936 251.76 417.222 250.907" fill="#fff" style=""/>
  <polygon points="417.126 257.92 417.151 256.167 439.864 257.02 439.839 258.774 417.126 257.92" fill="#fff" style=""/>
  <polygon points="417.031 264.933 417.056 263.18 439.767 264.034 439.746 265.787 417.031 264.933" fill="#fff" style=""/>
  <polygon points="416.935 271.947 416.96 270.193 439.674 271.047 439.648 272.801 416.935 271.947" fill="#fff" style=""/>
  <polygon points="416.841 278.958 416.863 277.207 439.577 278.059 439.553 279.812 416.841 278.958" fill="#fff" style=""/>
  <path d="M 614.163 392.991 L 570.322 391.949 C 565.936 374.093 567.911 357.094 571.41 341.432 L 615.251 342.473 C 610.816 358.942 610.443 376.327 614.163 392.991 Z" style="fill: rgb(29, 121, 150);"/>
  <polygon points="578.921 352.594 578.946 350.841 601.659 351.695 601.635 353.448 578.921 352.594" fill="#fff" style=""/>
  <polygon points="578.827 359.609 578.851 357.854 601.564 358.707 601.54 360.461 578.827 359.609" fill="#fff" style=""/>
  <polygon points="578.729 366.621 578.755 364.868 601.468 365.72 601.445 367.473 578.729 366.621" fill="#fff" style=""/>
  <polygon points="578.636 373.634 578.659 371.88 601.373 372.734 601.347 374.488 578.636 373.634" fill="#fff" style=""/>
  <polygon points="578.539 380.647 578.563 378.895 601.276 379.748 601.253 381.501 578.539 380.647" fill="#fff" style=""/>
  <path d="M 566.855 241.21 L 523.011 240.168 C 518.627 222.314 520.602 205.314 524.1 189.649 L 567.945 190.693 C 563.51 207.162 563.135 224.547 566.855 241.21 Z" style="fill: rgb(46, 186, 201);"/>
  <polygon points="531.613 200.815 531.634 199.062 554.349 199.914 554.326 201.667 531.613 200.815" fill="#fff" style=""/>
  <polygon points="531.516 207.827 531.541 206.074 554.252 206.929 554.231 208.683 531.516 207.827" fill="#fff" style=""/>
  <polygon points="531.421 214.841 531.444 213.089 554.158 213.942 554.134 215.694 531.421 214.841" fill="#fff" style=""/>
  <polygon points="531.325 221.854 531.351 220.1 554.063 220.953 554.038 222.707 531.325 221.854" fill="#fff" style=""/>
  <polygon points="531.231 228.866 531.254 227.113 553.969 227.968 553.943 229.721 531.231 228.866" fill="#fff" style=""/>
  <path d="M 611.799 355.762 C 618.238 354.094 621.678 346.717 618.987 340.349 L 646.631 313.178 L 627.508 308.347 L 604.189 334.889 C 596.891 338.922 596.485 349.743 603.456 354.367 C 605.938 356.013 608.954 356.518 611.799 355.762 Z" fill="#ffb6b6" style=""/>
  <path d="M 626.081 333.873 L 613.188 314.771 L 661.612 262.133 L 672.855 179.163 C 675.224 161.688 692.102 150.762 708.016 156.398 C 722.059 161.39 729.605 177.387 724.885 192.157 L 696.2 281.607 L 626.081 333.873 Z" fill="#e4e4e4" style=""/>
  <polygon points="726.276 687.404 709.793 687.403 701.952 629.387 726.279 629.388 726.276 687.404" fill="#ffb6b6" style=""/>
  <path d="M 735.143 715.963 L 723.448 715.963 L 721.36 705.886 L 716.012 715.963 L 684.993 715.963 C 679.627 715.964 676.273 710.661 678.956 706.418 C 679.472 705.601 680.181 704.9 681.031 704.363 L 705.802 688.752 L 705.802 678.565 L 731.857 679.984 L 735.143 715.963 Z" fill="#2f2e41" style=""/>
  <polygon points="827.962 672.097 813.483 679.287 776.208 631.748 797.577 621.138 827.962 672.097" fill="#ffb6b6" style=""/>
  <path d="M 850.706 693.316 L 840.433 698.417 L 833.323 690.476 L 833.903 701.659 L 806.657 715.19 C 801.942 717.531 796.219 714.336 796.354 709.44 C 796.378 708.497 796.635 707.571 797.101 706.73 L 810.683 682.212 L 805.348 673.264 L 828.975 663.146 L 850.706 693.316 Z" fill="#2f2e41" style=""/>
  <path d="M 733.22 666.744 L 699.158 666.744 L 699.158 556.057 L 678.071 483.895 C 662.939 432.288 658.914 378.492 666.228 325.489 L 666.258 325.273 L 666.441 325.133 C 666.982 324.717 720.952 283.993 755.091 315.145 C 778.102 336.147 756.48 411.653 755.27 415.799 L 755.27 545.966 L 733.22 666.744 Z" fill="#2f2e41" style=""/>
  <path d="M 655.854 345.596 L 666.832 245.41 C 665.407 242.679 644.877 225.374 666.344 194.948 L 689.528 145.281 L 732.953 144.665 L 733.133 144.831 C 753.881 163.725 762.879 190.847 757.098 217.07 L 744.305 275.453 L 755.392 315.921 L 655.854 345.596 Z" fill="#e4e4e4" style=""/>
  <polygon points="712.9 556.629 782.873 646.447 809.714 629.032 751.273 519.44 712.9 556.629" fill="#2f2e41" style=""/>
  <circle cx="628.801" cy="89.359" r="32.87" fill="#ffb6b6" style="" transform="matrix(1.21981, 0, 0, 1.113168, -59.837509, -0.877285)"/>
  <polygon points="697.33 230.94 708.307 291.051 697.33 341.142 675.373 341.142 685.353 291.051 697.33 230.94" opacity="0.1" style=""/>
  <path d="M 707.801 392.755 C 713.483 388.1 713.175 379.888 707.151 375.602 L 721.22 337.95 L 699.296 343.152 L 689.302 378.108 C 683.968 385.276 689.139 395.024 698.606 395.654 C 701.977 395.879 705.302 394.831 707.801 392.755 Z" fill="#ffb6b6" style=""/>
  <path d="M 711.019 366.379 L 688.065 355.905 L 710.107 285.505 L 678.721 206.743 C 672.11 190.155 683.622 172.164 702.699 169.26 C 719.541 166.718 735.461 177.096 738.289 192.46 L 755.293 285.571 L 711.019 366.379 Z" fill="#e4e4e4" style=""/>
  <path d="M 853.554 96.806 C 848.716 104.3 838.467 107.604 829.379 106.103 C 820.288 104.602 812.387 99.004 806.556 92.187 C 800.721 85.368 796.685 77.343 792.715 69.399 C 788.744 61.455 784.728 53.422 778.922 46.582 C 773.117 39.742 765.262 34.1 756.186 32.529 C 751.247 31.675 745.65 32.239 742.045 35.574 C 739.56 38.072 738.205 41.404 738.269 44.847 C 731.463 42.561 724.4 47.588 724.756 54.462 C 724.621 54.46 724.49 54.452 724.354 54.452 C 707.442 45.276 681.771 50.606 681.771 60.625 C 672.492 60.625 661.15 69.368 661.15 82.648 C 680.34 82.648 691.632 106.106 680.431 122.928 C 677.539 127.219 674.351 131.321 670.889 135.207 L 694.884 135.207 C 696.897 132.451 698.111 129.236 698.405 125.89 C 699.286 128.93 699.814 132.055 699.975 135.207 C 699.975 135.207 765.526 143.266 748.606 80.926 C 749.726 80.871 750.815 80.558 751.777 80.009 C 754.332 78.54 755.723 75.432 755.965 72.28 C 756.599 72.441 757.23 72.602 757.857 72.763 C 762.369 73.923 767.052 75.428 770.15 78.768 C 775.38 84.408 774.279 92.972 776.179 100.283 C 778.468 109.102 785.323 116.233 792.937 121.689 C 801.117 127.55 810.671 132.001 820.855 132.925 C 831.039 133.852 841.875 130.895 848.93 123.829 C 855.985 116.762 858.444 105.378 853.554 96.806 Z" fill="#2f2e41" style=""/>
</svg>