<?xml version="1.0" encoding="utf-8"?>
<svg viewBox="0 0 1110 720" xmlns="http://www.w3.org/2000/svg">
  <circle cx="540.253" cy="663.752" r="55.716" style="fill: rgb(29, 121, 150);"/>
  <path d="M 873.108 716.336 C 904.276 706.975 937.416 697.214 962.135 674.96 C 984.226 655.073 999.138 624.708 989.986 594.883 C 980.854 565.122 953.499 545.277 925.258 535.406 C 909.238 529.81 892.481 526.702 875.728 524.262 C 857.518 521.612 839.227 519.439 820.945 517.345 C 746.916 508.879 672.611 503.708 598.026 501.83 C 561.225 500.903 524.426 500.924 487.622 501.459 C 454.748 501.936 420.127 501.923 389.632 487.954 C 365.92 477.089 344.397 457.323 337.788 431.347 C 330.162 401.367 344.23 370.833 364.411 349.117 C 375.05 337.671 387.482 328.037 400.307 319.178 C 414.222 309.567 428.621 300.638 443.331 292.303 C 472.304 275.895 502.597 261.93 533.889 250.554 C 549.329 244.94 564.994 240.1 580.799 235.631 C 594.142 231.858 607.528 228.08 620.424 222.94 C 645.356 213.004 669.067 196.173 675.409 168.577 C 681.416 142.427 671.286 114.037 653.528 94.607 C 632.98 72.131 602.003 62.278 572.303 60.684 C 538.96 58.895 506.384 67.238 475.044 77.829 C 441.621 89.125 408.914 102.114 374.782 111.263 C 340.934 120.327 306.435 126.741 271.591 130.446 C 254.533 132.261 236.961 134.311 219.804 132.923 C 205.426 131.758 191.118 127.527 180.519 117.321 C 171.43 108.571 166.018 96.544 167.879 83.853 C 168.218 81.548 171.72 82.527 171.382 84.819 C 169.119 100.269 179.619 114.504 192.561 121.797 C 207.517 130.224 225.717 130.236 242.367 129.272 C 278.473 127.091 314.335 121.906 349.579 113.774 C 384.211 105.863 417.606 94.557 450.964 82.478 C 482.644 71.004 515.034 59.809 548.879 57.323 C 578.245 55.168 609.14 59.445 634.722 74.793 C 657.207 88.281 673.742 110.775 679.012 136.588 C 684.159 161.811 677.029 187.199 657.936 204.801 C 638.165 223.024 611.061 230.816 585.8 237.992 C 553.759 247.093 522.406 257.733 492.061 271.546 C 461.299 285.509 431.796 302.095 403.883 321.119 C 376.936 339.533 350.345 362.7 341.823 395.55 C 337.855 410.852 338.588 427.081 345.23 441.535 C 351.135 454.385 360.863 465.194 372.192 473.531 C 399.228 493.427 433.303 497.511 465.96 497.917 C 502.636 498.374 539.315 497.138 576.005 497.737 C 650.776 498.966 725.395 503.516 799.86 511.393 C 818.521 513.368 837.155 515.549 855.769 517.941 C 872.508 520.092 889.306 522.23 905.767 526.049 C 935.034 532.843 963.509 545.904 981.7 570.717 C 989.773 581.474 994.776 594.218 996.17 607.594 C 997.443 621.553 994.026 635.535 987.715 647.954 C 973.748 675.435 947.582 692.917 919.798 704.401 C 904.917 710.553 889.477 715.213 874.072 719.841 C 871.828 720.514 870.869 717.008 873.109 716.336 L 873.108 716.336 Z" fill="#f2f2f2" style=""/>
  <circle cx="170.226" cy="84.179" r="29.069" fill="#f2f2f2" style=""/>
  <circle cx="371.895" cy="139.292" r="29.069" fill="#f2f2f2" style=""/>
  <circle cx="529.069" cy="29.069" r="29.069" fill="#f2f2f2" style=""/>
  <circle cx="649.263" cy="152.614" r="29.069" fill="#f2f2f2" style=""/>
  <circle cx="505.129" cy="295.538" r="29.069" fill="#f2f2f2" style=""/>
  <circle cx="322.234" cy="364.579" r="29.069" fill="#f2f2f2" style=""/>
  <circle cx="516.03" cy="472.377" r="29.069" fill="#f2f2f2" style=""/>
  <circle cx="724.361" cy="532.938" r="29.069" fill="#f2f2f2" style=""/>
  <circle cx="967.817" cy="519.614" r="29.069" fill="#f2f2f2" style=""/>
  <path d="M 534.287 82.367 C 447.21 82.982 375.913 153.744 374.674 240.816 C 374.662 241.618 374.657 247.27 374.658 254.664 C 374.659 277.237 392.955 295.536 415.53 295.538 C 438.128 295.534 456.441 277.2 456.423 254.6 C 456.417 249.573 456.414 246.092 456.414 245.879 C 456.404 186.205 520.994 148.895 572.68 178.721 C 623.005 207.761 624.672 279.798 575.746 311.138 L 575.759 311.154 C 575.759 311.154 517.587 348.607 499.851 399.981 L 499.866 399.984 C 496.748 410.508 495.168 421.43 495.174 432.407 C 495.174 436.919 495.439 476.4 495.953 508.444 C 496.325 531.449 515.083 549.9 538.091 549.895 C 561.47 549.894 580.378 530.866 580.236 507.489 C 580.057 478.142 579.96 443.971 579.96 441.491 C 579.96 409.945 610.393 378.514 635.39 358.017 C 664.177 334.413 684.89 302.249 693.211 265.964 C 695.051 258.494 696.066 250.844 696.238 243.154 C 696.238 153.897 623.54 81.722 534.287 82.367 Z" style="fill: rgb(29, 121, 150);"/>
  <circle cx="778.934" cy="294.323" r="36.337" fill="#2f2e41" style=""/>
  <polygon points="711.787 705.089 696.939 705.089 689.873 647.812 711.791 647.812 711.787 705.089" fill="#a0616a" style=""/>
  <path d="M 686.331 700.844 L 714.968 700.844 C 714.968 700.844 714.968 700.844 714.968 700.844 L 714.968 718.875 C 714.968 718.875 714.968 718.875 714.968 718.875 L 668.3 718.875 C 668.3 718.875 668.3 718.875 668.3 718.875 C 668.3 708.918 676.373 700.844 686.331 700.844 Z" fill="#2f2e41" style=""/>
  <polygon points="826.853 705.089 812.005 705.089 804.939 647.812 826.856 647.812 826.853 705.089" fill="#a0616a" style=""/>
  <path d="M 801.399 700.844 L 830.035 700.844 C 830.035 700.844 830.035 700.844 830.035 700.844 L 830.035 718.875 C 830.035 718.875 830.035 718.875 830.035 718.875 L 783.366 718.875 C 783.366 718.875 783.366 718.875 783.366 718.875 C 783.366 708.918 791.44 700.844 801.399 700.844 Z" fill="#2f2e41" style=""/>
  <circle cx="773.411" cy="301.122" r="29.75" fill="#a0616a" style=""/>
  <path d="M 791.142 426.842 L 804.453 396.259 C 811.079 381.555 807.706 364.27 796.037 353.14 C 794.867 351.985 793.625 350.901 792.317 349.906 C 785.749 344.768 777.655 341.967 769.316 341.947 C 763.709 341.969 758.174 343.2 753.086 345.556 C 752.649 345.752 752.225 345.956 751.789 346.163 C 750.955 346.562 750.132 346.998 749.331 347.446 C 738.757 353.519 731.698 364.254 730.314 376.371 L 724.44 425.595 C 722.962 429.459 670.25 568.991 688.683 675.519 C 689.088 677.851 690.963 679.654 693.312 679.965 L 712.002 682.508 C 714.832 682.895 717.481 681.027 718.07 678.232 L 749.43 528.755 C 750.101 525.558 753.98 524.288 756.413 526.47 C 757.013 527.005 757.446 527.702 757.664 528.476 L 801.971 685.668 C 802.62 688.016 804.755 689.643 807.19 689.643 C 807.544 689.639 807.898 689.606 808.246 689.545 L 831.077 685.148 C 833.827 684.632 835.732 682.108 835.473 679.322 C 832.118 641.907 814.29 454.495 791.142 426.842 Z" style="" fill="#2f2e41"/>
  <path d="M 657.801 325.88 C 656.92 333.413 663.063 339.906 670.632 339.45 L 687.261 379.41 L 699.84 360.765 L 682.119 325.676 C 680.93 316.323 670.065 311.767 662.56 317.472 C 659.887 319.504 658.167 322.543 657.801 325.88 Z" fill="#a0616a" style=""/>
  <path d="M 771.763 467.08 C 779.291 466.179 784.176 458.693 781.968 451.44 L 816.955 425.955 L 795.89 418.069 L 765.897 443.475 C 757.079 446.811 755.181 458.442 762.478 464.409 C 765.076 466.534 768.434 467.498 771.763 467.08 Z" fill="#a0616a" style=""/>
  <path d="M 714.729 406.051 C 713.386 406.05 712.048 405.919 710.732 405.658 C 704.27 404.427 698.845 400.061 696.261 394.01 L 672.964 365.602 C 670.872 363.055 671.507 359.247 674.309 357.511 L 690.884 347.251 C 693.461 345.658 696.841 346.467 698.413 349.057 L 714.832 376.109 L 746.276 352.87 C 754.305 348.662 763.88 354.719 763.512 363.777 C 763.39 366.777 762.123 369.619 759.976 371.719 L 728.591 400.349 C 724.903 404.002 719.92 406.052 714.729 406.051 Z" style="" fill="#2f2e41"/>
  <path d="M 799.695 448.774 C 799.652 448.774 799.609 448.774 799.566 448.773 C 798.02 448.736 796.565 448.045 795.555 446.871 L 780.82 429.681 C 778.692 427.196 779.216 423.41 781.935 421.597 L 809.529 403.203 L 784.531 373.149 C 779.869 365.376 785.369 355.471 794.431 355.319 C 797.434 355.27 800.343 356.368 802.564 358.393 L 832.944 388.083 C 843.279 397.523 840.978 414.386 828.494 420.713 L 803.662 447.063 C 802.631 448.154 801.196 448.774 799.695 448.774 Z" style="" fill="#2f2e41"/>
  <path d="M 765.849 385.427 C 765.609 385.427 765.374 385.414 765.14 385.384 C 763.044 385.129 761.288 383.677 760.646 381.665 L 749.572 347.715 C 748.999 345.942 749.823 344.015 751.504 343.205 L 751.863 343.036 C 752.189 342.881 752.509 342.728 752.84 342.582 C 758.002 340.187 763.625 338.936 769.316 338.919 C 776.703 338.932 783.929 341.104 790.102 345.165 C 791.824 346.312 792.31 348.625 791.195 350.368 L 770.423 382.91 C 769.431 384.48 767.704 385.432 765.849 385.427 Z" fill="#e6e6e6" style=""/>
  <circle cx="807.581" cy="266.21" r="11.889" fill="#2f2e41" style=""/>
  <path d="M 766.822 253.141 C 749.43 253.141 735.33 267.24 735.33 284.633 L 735.33 297.957 L 751.716 297.957 L 759.555 284.633 L 761.905 297.957 L 811.637 297.957 L 798.313 284.633 C 798.313 267.24 784.214 253.141 766.822 253.141 Z" fill="#2f2e41" style=""/>
  <path d="M 813.693 258.066 C 816.406 249.579 824.825 244.269 833.654 245.472 C 841.232 246.74 847.223 252.832 850.793 259.635 C 854.362 266.439 856.011 274.052 858.411 281.349 C 860.81 288.648 864.213 295.984 870.272 300.709 C 876.33 305.434 885.626 306.716 891.576 301.855 C 889.083 320.446 867.397 329.366 852.543 317.908 C 849.952 315.909 847.789 313.408 846.183 310.556 C 843.044 304.969 842.234 298.423 841.303 292.083 C 840.372 285.74 839.161 279.183 835.414 273.985 C 831.665 268.788 824.648 265.393 818.696 267.761 L 813.693 258.066 Z" fill="#2f2e41" style=""/>
  <path d="M 427.071 276.205 C 404.497 276.202 386.199 257.904 386.198 235.331 C 386.198 227.938 386.202 222.285 386.215 221.482 C 386.56 196.16 392.935 171.284 404.816 148.918 C 385.296 175.642 374.562 207.77 374.103 240.862 C 374.09 241.667 374.085 247.318 374.085 254.711 C 374.086 277.283 392.385 295.582 414.958 295.584 C 433.26 295.576 449.332 283.413 454.307 265.801 C 446.824 272.511 437.123 276.218 427.071 276.205 Z" fill="#3f3d56" style=""/>
  <path d="M 537.057 168.493 C 591.22 171.08 626.061 227.049 604.472 276.792 C 643.157 231.356 618.154 161.085 559.465 150.3 C 523.999 143.781 488.722 162.582 474.355 195.656 C 489.908 177.361 513.074 167.327 537.057 168.493 Z" fill="#3f3d56" style=""/>
  <path d="M 549.63 530.561 C 526.623 530.568 507.866 512.116 507.492 489.111 C 506.98 457.067 506.713 417.584 506.713 413.073 C 506.707 402.097 508.288 391.175 511.406 380.652 L 511.393 380.648 C 513.234 375.365 515.458 370.226 518.044 365.263 C 510.098 375.856 503.774 387.57 499.28 400.027 L 499.294 400.029 C 496.174 410.555 494.595 421.475 494.603 432.453 C 494.603 436.965 494.867 476.445 495.382 508.491 C 495.755 531.495 514.511 549.946 537.519 549.942 C 556.246 549.938 572.727 537.58 577.975 519.604 C 570.228 526.666 560.115 530.577 549.63 530.561 Z" fill="#3f3d56" style=""/>
  <polygon points="171.011 705.641 185.86 705.64 192.924 648.362 171.008 648.363 171.011 705.641" fill="#ffb8b8" style=""/>
  <path d="M 155.326 701.886 L 199.295 701.886 C 199.295 701.886 199.295 701.886 199.295 701.886 L 199.295 718.872 C 199.295 718.872 199.295 718.872 199.295 718.872 L 172.314 718.872 C 162.929 718.872 155.326 711.269 155.326 701.886 C 155.326 701.886 155.326 701.886 155.326 701.886 Z" fill="#2f2e41" style="" transform="matrix(-1, 0.000046, -0.000046, -1, 354.653687, 1420.749878)"/>
  <polygon points="117.717 705.641 132.565 705.64 139.63 648.362 117.714 648.363 117.717 705.641" fill="#ffb8b8" style=""/>
  <path d="M 105.116 701.886 L 149.083 701.886 C 149.083 701.886 149.083 701.886 149.083 701.886 L 149.083 718.874 C 149.083 718.874 149.083 718.874 149.083 718.874 L 122.101 718.874 C 112.72 718.874 105.116 711.269 105.116 701.886 C 105.116 701.886 105.116 701.886 105.116 701.886 Z" fill="#2f2e41" style="" transform="matrix(-1, 0.000046, -0.000046, -1, 254.231674, 1420.75415)"/>
  <path d="M 130.692 688.025 L 116.188 687.26 C 113.04 687.096 110.635 684.392 110.837 681.246 L 128.173 489.307 L 208.006 510.85 L 215.696 508.754 L 191.644 678.668 C 191.221 681.301 189.026 683.288 186.365 683.447 L 170.729 684.174 C 167.423 684.357 164.666 681.676 164.757 678.366 L 167.589 576.384 C 167.63 574.932 166.084 573.982 164.806 574.673 C 164.317 574.936 163.968 575.403 163.855 575.949 L 136.535 683.521 C 136.004 686.153 133.685 688.043 131 688.033 C 130.9 688.033 130.795 688.031 130.692 688.025 Z" fill="#2f2e41" style=""/>
  <circle cx="173.677" cy="302.513" r="29.75" fill="#ffb8b8" style=""/>
  <path d="M 124.148 389.913 L 127.418 460.488 L 128.6 486.164 C 128.696 488.452 130.17 490.452 132.325 491.223 L 209.038 519.012 C 209.657 519.241 210.314 519.357 210.976 519.353 C 214.161 519.366 216.724 516.736 216.625 513.554 L 213.48 386.655 C 213.054 365.18 197.419 347.039 176.241 343.442 C 175.5 343.33 174.745 343.216 173.989 343.115 C 161.103 341.516 148.17 345.701 138.664 354.551 C 128.821 363.603 123.503 376.558 124.148 389.913 Z" style="fill: rgb(46, 186, 201);"/>
  <path d="M 245.685 504.93 C 237.889 502.509 234.628 493.26 239.181 486.488 L 213.165 451.895 L 235.616 450.504 L 256.878 483.567 C 264.335 489.334 262.756 501.012 254.033 504.588 C 251.375 505.676 248.42 505.795 245.685 504.93 Z" fill="#ffb8b8" style=""/>
  <path d="M 227.393 480.227 C 226.002 479.662 224.894 478.563 224.315 477.175 L 185.122 383.797 C 180.618 373.085 189.397 361.514 200.927 362.968 C 206.285 363.643 210.875 367.131 212.961 372.112 L 252.155 465.492 C 253.361 468.374 252.005 471.691 249.126 472.904 L 231.726 480.207 C 230.342 480.792 228.783 480.799 227.393 480.227 Z" style="fill: rgb(46, 186, 201);"/>
  <path d="M 164.112 476.933 L 201.756 404.854 C 203.267 401.97 206.83 400.85 209.72 402.355 L 264.36 430.892 C 267.244 432.404 268.363 435.966 266.859 438.854 L 229.215 510.933 C 227.703 513.821 224.141 514.939 221.251 513.432 L 166.611 484.896 C 163.725 483.384 162.608 479.823 164.112 476.933 Z" fill="#3f3d56" style=""/>
  <path d="M 189.357 444.002 C 186.481 436.363 177.058 433.653 170.563 438.599 L 134.494 414.672 L 134.433 437.166 L 168.693 456.44 C 174.891 463.543 186.455 461.275 189.51 452.357 C 190.44 449.639 190.385 446.684 189.357 444.002 Z" fill="#ffb8b8" style=""/>
  <path d="M 143.756 449.059 L 114.278 425.712 C 100.495 421.083 95.598 404.1 104.802 392.844 L 131.566 357.767 C 137.528 350.483 149.142 352.383 152.468 361.188 C 153.572 364.11 153.517 367.342 152.314 370.226 L 131.138 404.864 L 162.258 419.627 C 165.328 421.082 166.431 424.893 164.617 427.765 L 152.055 447.646 C 151.197 449.002 149.804 449.932 148.222 450.204 C 148.189 450.209 148.158 450.213 148.126 450.218 C 146.571 450.454 144.989 450.034 143.756 449.059 Z" style="fill: rgb(46, 186, 201);"/>
  <path d="M 151.198 322.434 C 150.65 320.833 151.761 319.149 153.445 319.019 C 155.074 319.108 156.597 319.858 157.656 321.097 C 158.732 322.337 159.986 323.415 161.376 324.291 C 162.815 325.017 164.766 324.913 165.587 323.529 C 166.357 322.232 165.83 320.492 165.366 318.984 C 164.177 315.145 163.513 311.165 163.389 307.149 C 163.256 302.667 163.887 297.99 166.368 294.495 C 169.571 289.983 175.298 288.27 180.716 288.395 C 186.135 288.517 191.466 290.192 196.833 291.25 C 198.687 291.614 200.866 291.801 202.106 290.366 C 203.422 288.839 202.94 286.365 202.378 284.304 C 200.923 278.953 199.38 273.421 196.001 269.1 C 192.346 264.61 187.127 261.673 181.391 260.875 C 175.888 260.192 170.298 260.829 165.087 262.726 C 156.596 265.404 149.122 270.609 143.669 277.647 C 138.046 285.133 135.617 294.539 136.912 303.811 C 138.177 311.886 142.457 319.181 148.887 324.224 L 151.198 322.434 Z" fill="#2f2e41" style=""/>
  <path d="M 527.977 705.878 C 493.999 691.077 483.675 647.841 507.303 619.288 C 472.666 644.578 478.394 697.88 517.613 715.234 C 540.435 725.329 567.186 719.02 583.089 699.791 C 567.106 711.471 546.123 713.789 527.977 705.878 Z" fill="#3f3d56" style=""/>
</svg>