<?xml version="1.0" encoding="utf-8"?>
<svg viewBox="0 0 1110 720" xmlns="http://www.w3.org/2000/svg">
  <defs>
    <linearGradient gradientUnits="userSpaceOnUse" x1="953.507" y1="509.581" x2="953.507" y2="528.899" id="gradient-0" gradientTransform="matrix(1, 0, 0, 1, 16.327669, -1.084877)">
      <stop offset="0" style="stop-color: rgba(216, 216, 216, 1)"/>
      <stop offset="1" style="stop-color: rgba(165, 165, 165, 1)"/>
    </linearGradient>
  </defs>
  <path d="M 141.101 610.152 L 137.396 629.593 C 137.118 631.077 136.826 632.592 136.511 634.09 C 133.585 633.42 130.544 633.608 127.687 634.635 C 129.91 638.196 131.894 641.934 133.625 645.82 C 131.341 653.341 128.025 660.296 122.545 665.322 C 115.1 672.001 105.087 673.944 96.129 670.446 L 96.29 669.676 C 90.581 657.163 93.915 641.387 101.288 629.829 C 105.048 624.129 109.485 619.01 114.479 614.613 C 119.426 610.1 124.76 606.051 130.053 602.059 C 134.651 598.594 140.871 601.884 141.241 607.984 C 141.284 608.713 141.238 609.44 141.101 610.152 Z" style="fill: rgb(46, 186, 201);" transform="matrix(0.999947, -0.01026, 0.01026, 0.999947, -6.52333, 1.237308)"/>
  <path id="b311a411-101b-4365-a37b-2cdfec47a637-437" data-name="a4b268fa-75d0-4ac1-9d87-14bdca948464-2189" d="M 97.332 717.322 C 95.979 705.446 94.585 693.413 95.743 681.407 C 96.774 670.742 99.822 660.33 105.907 651.79 C 109.135 647.27 113.05 643.392 117.469 640.334 C 118.622 639.54 119.652 641.543 118.505 642.335 C 110.86 647.635 104.906 655.463 101.505 664.688 C 97.746 674.947 97.049 686.131 97.569 697.026 C 97.881 703.619 98.622 710.166 99.367 716.708 C 99.496 717.319 99.169 717.946 98.62 718.133 C 98.058 718.298 97.487 717.938 97.335 717.321 L 97.332 717.322 Z" fill="#f2f2f2" style="" transform="matrix(0.999947, -0.01026, 0.01026, 0.999947, -6.962567, 1.135195)"/>
  <path d="M 105.693 114.395 C 160.128 113.406 214.55 113.267 268.976 113.969 C 323.395 114.678 377.788 116.24 432.151 118.649 C 462.657 119.999 493.146 121.618 523.625 123.509 C 526.074 123.657 526.103 119.679 523.665 119.525 C 469.362 116.168 415.013 113.654 360.616 111.986 C 306.227 110.326 251.812 109.512 197.375 109.55 C 166.829 109.569 136.279 109.859 105.729 110.418 C 103.283 110.465 103.236 114.442 105.693 114.395 Z" fill="#e6e6e6" style="" transform="matrix(0.999953, -0.0097, 0.0097, 0.999953, -1.115545, 3.05783)"/>
  <path d="M 484.899 87.671 L 508.71 85.821 C 511.147 85.631 511.205 81.65 508.747 81.841 L 484.937 83.69 C 482.503 83.879 482.447 87.864 484.899 87.671 Z" fill="#e6e6e6" style="" transform="matrix(0.999953, -0.0097, 0.0097, 0.999953, -0.79876, 4.823189)"/>
  <path d="M 484.899 111.555 L 508.71 109.706 C 511.147 109.516 511.205 105.534 508.747 105.725 L 484.937 107.575 C 482.503 107.763 482.447 111.746 484.899 111.555 Z" fill="#e6e6e6" style="" transform="matrix(0.999953, -0.0097, 0.0097, 0.999953, -1.030434, 4.824313)"/>
  <path d="M 483.131 100.618 L 516.936 103.827 C 519.374 104.056 519.398 100.077 516.977 99.845 L 483.17 96.634 C 480.731 96.4 480.708 100.387 483.131 100.618 Z" fill="#e6e6e6" style="" transform="matrix(0.999953, -0.0097, 0.0097, 0.999953, -0.948708, 4.855229)"/>
  <path d="M 119.846 85.982 C 116.462 85.958 113.375 88.05 112.004 91.296 C 110.462 94.485 111.142 98.34 113.659 100.71 C 115.999 102.81 119.219 103.494 122.189 102.526 C 125.246 101.412 127.328 98.415 127.372 95.037 C 127.545 91.296 125.455 87.86 122.148 86.455 C 121.135 86.168 120.084 86.788 119.79 87.843 C 119.533 88.902 120.1 89.975 121.095 90.291 C 121.431 90.428 120.795 90.122 121.106 90.298 C 121.234 90.371 121.36 90.438 121.482 90.513 C 121.592 90.58 121.691 90.652 121.797 90.722 C 122.149 90.967 121.623 90.543 121.849 90.76 C 122.041 90.954 122.237 91.136 122.414 91.345 C 122.48 91.423 122.743 91.643 122.54 91.488 C 122.381 91.374 122.478 91.403 122.54 91.495 C 122.584 91.564 122.631 91.637 122.676 91.706 C 122.825 91.941 122.958 92.184 123.074 92.438 C 123.103 92.498 123.128 92.555 123.154 92.613 C 123.207 92.721 123.289 92.75 123.158 92.615 C 123.04 92.484 123.117 92.493 123.158 92.62 C 123.186 92.699 123.218 92.782 123.243 92.867 C 123.332 93.135 123.403 93.404 123.463 93.683 C 123.488 93.812 123.507 93.94 123.534 94.07 C 123.614 94.525 123.522 93.785 123.539 94.125 C 123.554 94.407 123.571 94.689 123.56 94.97 C 123.559 95.103 123.555 95.234 123.543 95.362 C 123.538 95.428 123.53 95.492 123.523 95.558 C 123.502 95.868 123.506 95.444 123.546 95.415 C 123.463 95.679 123.4 95.954 123.369 96.234 C 123.335 96.355 123.291 96.478 123.25 96.601 C 123.113 97.027 123.377 96.37 123.233 96.658 C 123.112 96.91 122.979 97.152 122.838 97.388 C 122.774 97.486 122.536 97.708 122.732 97.555 C 122.938 97.386 122.623 97.675 122.553 97.748 C 122.468 97.845 122.377 97.939 122.281 98.027 C 122.221 98.087 122.157 98.142 122.089 98.196 C 122.08 98.191 122.409 97.966 122.233 98.086 C 122.001 98.238 121.787 98.399 121.546 98.529 C 121.52 98.544 121.215 98.692 121.217 98.698 C 121.203 98.645 121.609 98.548 121.332 98.644 C 121.273 98.662 121.217 98.685 121.155 98.708 C 120.899 98.797 120.637 98.864 120.378 98.922 C 120.318 98.932 120.254 98.941 120.197 98.955 C 119.998 99.009 120.383 98.928 120.396 98.931 C 120.25 98.928 120.103 98.939 119.962 98.971 C 119.691 98.988 119.42 98.988 119.15 98.971 C 119.084 98.969 119.025 98.962 118.963 98.957 C 118.817 98.95 118.714 98.839 118.904 98.96 C 119.051 99.05 119.038 98.984 118.91 98.957 C 118.846 98.945 118.784 98.936 118.724 98.926 C 118.458 98.871 118.189 98.804 117.934 98.72 C 117.794 98.677 117.656 98.623 117.52 98.573 C 117.458 98.554 117.399 98.531 117.342 98.5 C 117.341 98.488 117.7 98.681 117.508 98.574 C 117.273 98.439 117.027 98.33 116.799 98.181 C 116.673 98.103 116.559 98.019 116.436 97.935 C 116.383 97.901 116.331 97.864 116.285 97.824 C 116.29 97.806 116.579 98.088 116.429 97.935 C 116.237 97.744 116.033 97.573 115.849 97.366 C 115.809 97.32 115.769 97.27 115.729 97.224 L 115.685 97.176 C 115.582 97.043 115.581 97.044 115.68 97.176 C 115.785 97.207 115.773 97.324 115.682 97.173 C 115.646 97.123 115.613 97.071 115.577 97.015 C 115.428 96.785 115.294 96.538 115.189 96.28 C 115.202 96.273 115.355 96.761 115.24 96.392 C 115.217 96.322 115.188 96.254 115.171 96.188 C 115.124 96.048 115.091 95.907 115.06 95.767 C 115.026 95.624 115.008 95.483 114.978 95.344 C 114.927 95.11 115.009 95.529 114.998 95.518 C 114.969 95.485 114.984 95.283 114.981 95.234 C 114.97 94.921 115.007 94.618 115.016 94.309 C 115.022 94.066 114.991 94.494 114.988 94.482 C 114.989 94.412 115.006 94.34 115.025 94.272 C 115.064 94.11 115.1 93.944 115.142 93.784 C 115.189 93.597 115.249 93.414 115.314 93.233 C 115.342 93.164 115.367 93.098 115.392 93.029 C 115.475 92.781 115.227 93.332 115.364 93.106 C 115.546 92.796 115.685 92.462 115.883 92.157 C 115.927 92.084 116.205 91.676 116.062 91.881 C 115.91 92.086 116.209 91.7 116.266 91.637 C 116.504 91.364 116.781 91.138 117.024 90.88 C 117.171 90.724 116.924 90.954 116.91 90.967 C 116.984 90.909 117.061 90.855 117.136 90.796 C 117.274 90.705 117.41 90.614 117.546 90.524 C 117.702 90.43 117.881 90.36 118.03 90.26 C 118.211 90.138 117.897 90.312 117.889 90.316 C 117.974 90.272 118.057 90.238 118.147 90.213 C 118.294 90.158 118.939 89.867 119.07 89.962 C 119.069 89.956 118.588 90.002 118.976 89.975 C 119.067 89.969 119.159 89.962 119.253 89.954 C 119.438 89.949 119.619 89.951 119.807 89.964 C 120.861 89.954 121.716 89.068 121.731 87.972 C 121.72 86.884 120.887 86.003 119.846 85.982 Z" fill="#e6e6e6" style="" transform="matrix(0.999953, -0.0097, 0.0097, 0.999953, -0.910744, 1.161492)"/>
  <path d="M 146.524 85.723 C 143.143 85.701 140.057 87.791 138.683 91.039 C 137.14 94.229 137.819 98.082 140.334 100.451 C 142.676 102.551 145.897 103.235 148.868 102.265 C 151.928 101.152 154.003 98.154 154.048 94.779 C 154.222 91.039 152.132 87.601 148.827 86.197 C 147.814 85.909 146.761 86.53 146.471 87.586 C 146.209 88.642 146.779 89.717 147.776 90.033 C 148.106 90.171 147.476 89.865 147.781 90.038 C 147.908 90.114 148.036 90.18 148.16 90.253 C 148.265 90.321 148.371 90.392 148.469 90.463 C 148.824 90.709 148.299 90.285 148.527 90.502 C 148.718 90.694 148.916 90.879 149.091 91.088 C 149.157 91.165 149.422 91.387 149.215 91.232 C 149.058 91.115 149.156 91.142 149.215 91.237 C 149.263 91.305 149.305 91.376 149.351 91.448 C 149.502 91.682 149.636 91.925 149.754 92.18 C 149.781 92.237 149.805 92.295 149.834 92.355 C 149.887 92.463 149.964 92.492 149.839 92.356 C 149.721 92.224 149.796 92.234 149.839 92.362 C 149.869 92.443 149.895 92.523 149.923 92.607 C 150.01 92.875 150.084 93.145 150.142 93.425 C 150.163 93.554 150.19 93.68 150.209 93.811 C 150.29 94.268 150.201 93.526 150.216 93.865 C 150.232 94.148 150.25 94.428 150.239 94.714 C 150.235 94.845 150.234 94.974 150.218 95.104 C 150.216 95.168 150.208 95.233 150.201 95.3 C 150.178 95.609 150.185 95.185 150.225 95.156 C 150.135 95.42 150.078 95.695 150.047 95.973 C 150.015 96.098 149.972 96.219 149.93 96.341 C 149.795 96.767 150.057 96.111 149.913 96.398 C 149.794 96.649 149.658 96.892 149.516 97.13 C 149.451 97.225 149.215 97.449 149.409 97.297 C 149.617 97.127 149.3 97.417 149.228 97.491 C 149.142 97.586 149.055 97.679 148.96 97.767 C 148.9 97.827 148.836 97.885 148.769 97.938 C 148.757 97.931 149.09 97.708 148.908 97.827 C 148.68 97.978 148.464 98.139 148.221 98.27 C 148.195 98.285 147.893 98.434 147.893 98.438 C 147.881 98.385 148.286 98.293 148.006 98.384 C 147.949 98.403 147.894 98.427 147.831 98.45 C 147.575 98.537 147.318 98.608 147.054 98.662 C 146.993 98.672 146.93 98.681 146.869 98.698 C 146.676 98.752 147.062 98.668 147.073 98.671 C 146.925 98.668 146.782 98.681 146.64 98.715 C 146.37 98.728 146.094 98.728 145.826 98.715 C 145.762 98.712 145.697 98.702 145.64 98.699 C 145.494 98.691 145.389 98.581 145.584 98.701 C 145.726 98.793 145.715 98.725 145.587 98.699 C 145.525 98.686 145.464 98.678 145.4 98.666 C 145.131 98.611 144.87 98.544 144.606 98.463 C 144.472 98.42 144.334 98.364 144.194 98.313 C 144.134 98.296 144.079 98.272 144.021 98.242 C 144.019 98.229 144.373 98.423 144.187 98.314 C 143.95 98.18 143.705 98.071 143.475 97.924 C 143.354 97.845 143.235 97.761 143.111 97.677 C 143.062 97.645 143.01 97.608 142.963 97.564 C 142.969 97.548 143.258 97.829 143.106 97.677 C 142.913 97.486 142.71 97.314 142.524 97.108 C 142.486 97.06 142.447 97.011 142.406 96.965 L 142.363 96.919 C 142.26 96.784 142.259 96.785 142.358 96.919 C 142.461 96.95 142.453 97.065 142.358 96.915 C 142.324 96.863 142.29 96.811 142.255 96.755 C 142.103 96.524 141.971 96.281 141.871 96.021 C 141.88 96.013 142.03 96.505 141.918 96.133 C 141.895 96.063 141.866 95.994 141.847 95.928 C 141.805 95.789 141.769 95.65 141.738 95.509 C 141.705 95.365 141.686 95.228 141.654 95.086 C 141.602 94.849 141.686 95.271 141.679 95.259 C 141.642 95.229 141.664 95.023 141.659 94.974 C 141.645 94.663 141.685 94.36 141.693 94.05 C 141.7 93.808 141.673 94.235 141.666 94.226 C 141.667 94.152 141.682 94.08 141.706 94.014 C 141.741 93.851 141.776 93.684 141.819 93.523 C 141.871 93.335 141.926 93.155 141.993 92.974 C 142.018 92.906 142.046 92.84 142.068 92.771 C 142.15 92.522 141.906 93.074 142.04 92.849 C 142.225 92.538 142.363 92.203 142.558 91.898 C 142.603 91.824 142.885 91.416 142.737 91.624 C 142.587 91.826 142.888 91.444 142.945 91.376 C 143.182 91.105 143.457 90.88 143.702 90.622 C 143.848 90.467 143.604 90.695 143.586 90.709 C 143.662 90.65 143.737 90.597 143.814 90.54 C 143.946 90.445 144.084 90.354 144.223 90.265 C 144.383 90.172 144.559 90.101 144.709 90.001 C 144.891 89.879 144.575 90.052 144.57 90.056 C 144.645 90.012 144.734 89.981 144.823 89.955 C 144.972 89.9 145.618 89.609 145.748 89.701 C 145.748 89.696 145.264 89.743 145.652 89.717 C 145.745 89.71 145.833 89.701 145.931 89.695 C 146.115 89.688 146.302 89.692 146.485 89.705 C 147.537 89.695 148.393 88.81 148.412 87.711 C 148.399 86.624 147.568 85.746 146.524 85.723 Z" fill="#e6e6e6" style="" transform="matrix(0.999953, -0.0097, 0.0097, 0.999953, -0.906973, 1.420247)"/>
  <path d="M 173.201 85.463 C 169.818 85.441 166.731 87.531 165.358 90.777 C 163.818 93.969 164.494 97.822 167.014 100.193 C 169.355 102.293 172.576 102.977 175.54 102.007 C 178.604 100.894 180.683 97.896 180.727 94.52 C 180.901 90.777 178.809 87.342 175.501 85.938 C 174.489 85.651 173.438 86.27 173.144 87.327 C 172.886 88.384 173.461 89.457 174.45 89.775 C 174.786 89.911 174.152 89.606 174.459 89.779 C 174.589 89.856 174.717 89.92 174.837 89.996 C 174.945 90.061 175.047 90.134 175.149 90.205 C 175.501 90.448 174.979 90.024 175.206 90.245 C 175.393 90.435 175.591 90.621 175.767 90.828 C 175.833 90.905 176.1 91.127 175.895 90.972 C 175.734 90.856 175.833 90.884 175.895 90.977 C 175.94 91.047 175.986 91.117 176.033 91.187 C 176.18 91.423 176.314 91.667 176.433 91.921 C 176.46 91.979 176.483 92.039 176.51 92.096 C 176.559 92.203 176.64 92.233 176.516 92.098 C 176.398 91.968 176.477 91.975 176.516 92.103 C 176.542 92.183 176.571 92.265 176.598 92.348 C 176.682 92.616 176.756 92.887 176.815 93.165 C 176.84 93.296 176.861 93.421 176.883 93.552 C 176.966 94.009 176.877 93.269 176.892 93.609 C 176.905 93.89 176.924 94.171 176.915 94.456 C 176.913 94.585 176.909 94.717 176.897 94.845 C 176.893 94.91 176.887 94.973 176.876 95.042 C 176.857 95.35 176.86 94.928 176.905 94.895 C 176.812 95.161 176.754 95.436 176.72 95.714 C 176.686 95.838 176.646 95.959 176.605 96.082 C 176.472 96.509 176.731 95.851 176.587 96.14 C 176.472 96.39 176.34 96.632 176.192 96.873 C 176.127 96.968 175.893 97.191 176.088 97.036 C 176.295 96.869 175.978 97.157 175.909 97.233 C 175.823 97.328 175.731 97.42 175.636 97.507 C 175.575 97.57 175.513 97.625 175.445 97.678 C 175.434 97.674 175.768 97.449 175.584 97.569 C 175.36 97.719 175.141 97.881 174.904 98.013 C 174.878 98.028 174.569 98.174 174.569 98.179 C 174.558 98.125 174.964 98.034 174.683 98.124 C 174.627 98.145 174.57 98.168 174.508 98.19 C 174.251 98.279 173.997 98.348 173.734 98.403 C 173.675 98.416 173.609 98.424 173.554 98.438 C 173.353 98.492 173.739 98.411 173.75 98.415 C 173.604 98.411 173.458 98.423 173.32 98.456 C 173.044 98.47 172.774 98.47 172.507 98.456 C 172.442 98.453 172.38 98.442 172.318 98.439 C 172.173 98.432 172.065 98.321 172.259 98.441 C 172.407 98.532 172.395 98.468 172.263 98.439 C 172.2 98.428 172.138 98.42 172.076 98.409 C 171.813 98.352 171.547 98.286 171.287 98.203 C 171.148 98.159 171.013 98.105 170.873 98.056 C 170.813 98.036 170.753 98.015 170.697 97.982 C 170.697 97.97 171.051 98.162 170.863 98.057 C 170.627 97.923 170.381 97.81 170.152 97.665 C 170.031 97.586 169.914 97.503 169.79 97.418 C 169.739 97.384 169.683 97.348 169.639 97.306 C 169.644 97.288 169.936 97.571 169.783 97.418 C 169.591 97.225 169.386 97.054 169.204 96.849 C 169.161 96.802 169.123 96.752 169.081 96.705 L 169.042 96.66 C 168.94 96.524 168.936 96.525 169.034 96.66 C 169.139 96.691 169.134 96.806 169.035 96.654 C 168.999 96.606 168.971 96.552 168.934 96.498 C 168.782 96.266 168.65 96.021 168.543 95.762 C 168.556 95.756 168.706 96.244 168.594 95.875 C 168.569 95.804 168.542 95.737 168.52 95.669 C 168.478 95.53 168.448 95.391 168.417 95.249 C 168.381 95.108 168.365 94.968 168.333 94.826 C 168.277 94.592 168.365 95.01 168.355 95.002 C 168.32 94.97 168.338 94.764 168.337 94.717 C 168.323 94.404 168.363 94.099 168.369 93.79 C 168.375 93.55 168.352 93.977 168.346 93.966 C 168.347 93.893 168.359 93.823 168.384 93.754 C 168.419 93.593 168.455 93.426 168.496 93.267 C 168.547 93.079 168.605 92.898 168.671 92.716 C 168.696 92.646 168.722 92.58 168.742 92.512 C 168.829 92.263 168.584 92.815 168.717 92.589 C 168.901 92.278 169.044 91.942 169.237 91.64 C 169.281 91.565 169.563 91.158 169.415 91.364 C 169.266 91.566 169.568 91.183 169.623 91.116 C 169.856 90.847 170.139 90.622 170.381 90.364 C 170.527 90.208 170.281 90.436 170.262 90.448 C 170.342 90.391 170.417 90.338 170.491 90.281 C 170.626 90.187 170.763 90.094 170.899 90.007 C 171.06 89.912 171.234 89.842 171.386 89.741 C 171.569 89.62 171.252 89.792 171.245 89.798 C 171.325 89.753 171.413 89.721 171.501 89.696 C 171.649 89.64 172.293 89.353 172.428 89.443 C 172.423 89.438 171.939 89.486 172.327 89.457 C 172.422 89.451 172.513 89.443 172.607 89.436 C 172.791 89.433 172.977 89.435 173.161 89.444 C 174.214 89.436 175.067 88.551 175.089 87.451 C 175.075 86.366 174.245 85.488 173.201 85.463 Z" fill="#e6e6e6" style="" transform="matrix(0.999953, -0.0097, 0.0097, 0.999953, -0.903206, 1.679009)"/>
  <path d="M 556.131 529.82 L 88.739 529.82 C 76.432 529.804 66.566 519.27 66.679 506.274 L 70.994 66.254 C 71.137 53.258 81.21 42.721 93.517 42.707 L 560.907 42.707 C 573.214 42.721 583.084 53.258 582.968 66.254 L 578.653 506.274 C 578.51 519.27 568.437 529.804 556.131 529.82 Z M 93.493 45.394 C 82.587 45.406 73.658 54.735 73.535 66.254 L 69.217 506.274 C 69.119 517.792 77.863 527.122 88.763 527.136 L 556.154 527.136 C 567.058 527.122 575.989 517.792 576.115 506.274 L 580.431 66.254 C 580.529 54.735 571.785 45.406 560.879 45.394 L 93.493 45.394 Z" fill="#e6e6e6" style="" transform="matrix(0.999952, -0.009811, 0.009811, 0.999952, -2.792897, 3.200621)"/>
  <path d="M 90.329 344.41 L 254.703 343.888 L 418.233 343.368 L 510.477 343.074 C 511.949 343.02 512.827 341.33 512.062 340.029 C 511.731 339.469 511.153 339.118 510.513 339.093 L 346.146 339.616 L 182.618 340.134 L 90.369 340.429 C 88.901 340.482 88.024 342.172 88.786 343.474 C 89.115 344.037 89.695 344.387 90.329 344.41 Z" fill="#e6e6e6" style="" transform="matrix(0.999953, -0.0097, 0.0097, 0.999953, -3.300856, 2.930198)"/>
  <path d="M 172.975 342.428 L 174.598 279.753 C 174.668 277.191 170.858 277.191 170.788 279.753 L 169.164 342.428 C 169.102 344.989 172.909 344.989 172.975 342.428 Z" fill="#e6e6e6" style="" transform="matrix(0.999953, -0.0097, 0.0097, 0.999953, -3.009488, 1.681882)"/>
  <path d="M 251.341 342.333 L 254.582 263.553 L 255.512 241.043 C 255.611 238.482 251.803 238.484 251.699 241.043 L 248.458 319.825 L 247.53 342.333 C 247.429 344.894 251.236 344.892 251.341 342.333 Z" fill="#e6e6e6" style="" transform="matrix(0.999953, -0.0097, 0.0097, 0.999953, -2.817541, 2.453476)"/>
  <path d="M 330.845 197.946 C 329.08 225.85 325.514 308.153 323.752 336.053 C 323.59 338.615 327.403 338.609 327.561 336.053 C 329.326 308.153 332.889 225.85 334.655 197.946 C 334.818 195.386 331.007 195.393 330.845 197.946 Z" fill="#e6e6e6" style="" transform="matrix(0.999953, -0.0097, 0.0097, 0.999953, -2.574417, 3.205836)"/>
  <path d="M 408.188 312.27 L 407.463 339.088 C 407.39 341.652 411.203 341.653 411.272 339.088 C 412.128 307.413 413.537 308.448 413.778 299.508 C 413.853 296.942 410.039 296.942 409.968 299.508 C 409.968 299.508 409.051 280.595 408.188 312.27 Z" fill="#e6e6e6" style="" transform="matrix(0.999953, -0.0097, 0.0097, 0.999953, -3.06003, 3.997955)"/>
  <path d="M 484.971 241.076 L 484.673 316.318 L 484.585 337.863 C 484.622 339.394 486.233 340.296 487.487 339.485 C 488.028 339.134 488.37 338.524 488.398 337.863 L 488.697 262.621 L 488.781 241.076 C 488.747 239.541 487.133 238.643 485.88 239.457 C 485.342 239.804 485 240.411 484.971 241.076 Z" fill="#e6e6e6" style="" transform="matrix(0.999953, -0.0097, 0.0097, 0.999953, -2.784961, 4.734444)"/>
  <path d="M 90.027 342.21 C 86.957 333.157 94.155 324.447 101.498 320.536 C 110.298 315.847 120.378 314.786 129.271 310.268 C 142.524 303.525 152.252 291.436 160.915 279.334 C 169.833 266.873 178.015 253.503 189.299 243.152 C 195.241 237.576 202.241 233.372 209.832 230.814 C 219.393 227.707 229.5 227.495 239.339 228.745 C 259.664 231.334 278.442 240.112 298.025 245.689 C 316.485 250.952 336.854 253.91 355.105 245.727 C 364.378 241.571 371.993 234.603 380.162 228.567 C 388.066 222.67 396.883 218.251 406.214 215.507 C 424.504 210.211 444.413 211.623 461.309 220.579 C 476.839 228.707 489.064 242.331 495.832 259.049 C 503.687 279.132 502.423 301.58 499.587 322.723 C 498.855 328.189 497.994 333.636 497.123 339.079 C 496.723 341.585 500.385 342.665 500.788 340.138 C 504.269 318.337 507.759 295.845 503.896 273.908 C 500.556 254.749 490.637 237.595 475.996 225.64 C 461.285 213.657 442.921 207.583 424.185 208.51 C 414.368 208.983 404.691 211.228 395.57 215.141 C 386.104 219.214 378.064 225.247 369.896 231.601 C 361.497 238.13 352.85 243.53 342.484 245.659 C 332.423 247.726 321.99 246.952 312.013 245 C 291.432 240.978 272.298 231.75 251.896 227.027 C 232.997 222.647 212.561 222.208 195.488 233.386 C 182.354 241.984 173.003 255.335 164.033 268.222 C 155.131 280.997 146.118 294.659 133.207 303.387 C 125.332 308.711 116.519 310.674 107.738 313.667 C 98.934 316.669 90.459 321.733 86.786 331.121 C 85.209 334.99 85.053 339.315 86.341 343.268 C 87.149 345.658 90.845 344.626 90.027 342.21 Z" fill="#e6e6e6" style="" transform="matrix(0.999953, -0.0097, 0.0097, 0.999953, -2.668348, 2.879676)"/>
  <polygon points="172.016 271.083 172.011 271.085 172.024 271.083 172.016 271.083" fill="#e6e6e6" style="" transform="matrix(0.999953, -0.0097, 0.0097, 0.999953, -2.621422, 1.681323)"/>
  <path d="M 178.668 267.42 C 176.881 264.055 173.013 262.555 169.523 263.873 C 167.825 264.518 166.446 265.85 165.69 267.567 C 165.618 267.746 165.571 267.935 165.509 268.121 C 165.428 268.261 165.327 268.386 165.248 268.531 C 162.588 273.969 166.531 280.327 172.347 279.97 C 174.051 279.866 175.675 279.163 176.962 277.976 C 179.835 275.29 180.544 270.896 178.668 267.42 Z M 173.86 270.8 C 173.876 270.9 173.869 270.992 173.86 270.8 Z M 173.387 269.649 C 173.368 269.626 173.37 269.627 173.387 269.649 Z M 171.24 270.548 C 171.21 270.499 171.206 270.494 171.24 270.548 Z M 171.741 270.994 C 171.862 271.038 171.815 271.029 171.741 270.994 Z M 171.964 271.111 L 172.017 271.085 C 172.005 271.086 171.991 271.084 171.98 271.076 L 171.982 271.076 L 172.021 271.083 L 172.032 271.076 L 172.006 271.073 C 172.029 271.072 172.031 271.074 172.032 271.076 C 172.258 270.97 172.105 271.02 171.974 271.063 L 171.96 271.061 C 171.885 271.019 171.791 270.989 171.706 270.975 C 171.698 270.97 171.687 270.966 171.68 270.961 C 171.605 270.907 171.24 270.604 171.58 270.924 C 171.509 270.852 171.434 270.783 171.365 270.712 C 171.324 270.666 171.287 270.619 171.253 270.564 C 171.206 270.486 171.167 270.405 171.126 270.324 L 171.119 270.282 C 171.113 270.244 171.109 270.228 171.107 270.206 C 171.108 270.183 171.112 270.159 171.118 270.135 C 171.142 270.063 171.16 269.99 171.164 269.911 L 171.181 269.894 C 171.232 269.814 171.285 269.722 171.339 269.636 C 171.06 270.075 171.448 269.588 171.476 269.526 C 171.481 269.516 171.471 269.521 171.474 269.515 C 171.486 269.507 171.482 269.513 171.497 269.507 C 171.584 269.453 171.664 269.393 171.75 269.344 C 171.855 269.283 172.263 269.158 171.844 269.288 C 171.935 269.259 172.027 269.224 172.124 269.2 C 172.142 269.193 172.287 269.171 172.361 269.157 C 172.43 269.156 172.495 269.155 172.503 269.155 C 172.534 269.155 172.567 269.157 172.598 269.158 C 172.528 269.168 172.84 269.242 172.928 269.255 C 172.944 269.265 172.947 269.271 172.966 269.285 C 173.045 269.347 173.14 269.399 173.22 269.453 C 172.855 269.206 173.225 269.476 173.295 269.546 C 173.334 269.592 173.377 269.637 173.417 269.682 C 173.451 269.73 173.482 269.775 173.509 269.827 C 173.57 269.94 173.634 270.057 173.698 270.171 L 173.716 270.203 C 173.716 270.205 173.715 270.208 173.715 270.213 C 173.746 270.397 173.791 270.578 173.852 270.753 C 173.856 270.769 173.858 270.783 173.86 270.795 C 173.867 270.899 173.873 271.002 173.872 271.1 L 173.871 271.123 C 173.28 270.795 172.571 270.792 171.964 271.111 Z" fill="#e6e6e6" style="" transform="matrix(0.999953, -0.0097, 0.0097, 0.999953, -2.627308, 1.68172)"/>
  <path d="M 172.03 271.078 C 172.035 271.079 172.03 271.079 172.027 271.083 L 172.03 271.078 Z" fill="#e6e6e6" style="" transform="matrix(0.999953, -0.0097, 0.0097, 0.999953, -2.621388, 1.68144)"/>
  <path d="M 172.027 271.078 L 172.03 271.078 L 172.027 271.078 Z" fill="#e6e6e6" style="" transform="matrix(0.999953, -0.0097, 0.0097, 0.999953, -2.621363, 1.68143)"/>
  <path d="M 172.027 271.083 L 172.024 271.083 C 172.031 271.084 172.027 271.083 172.027 271.083 Z" fill="#e6e6e6" style="" transform="matrix(0.999953, -0.0097, 0.0097, 0.999953, -2.621414, 1.681406)"/>
  <polygon points="172.026 271.076 172.026 271.076 172.027 271.078 172.026 271.076" fill="#e6e6e6" style="" transform="matrix(0.999953, -0.0097, 0.0097, 0.999953, -2.621354, 1.68141)"/>
  <polygon points="253.319 233.14 253.313 233.141 253.324 233.14 253.319 233.14" fill="#e6e6e6" style="" transform="matrix(0.999953, -0.0097, 0.0097, 0.999953, -2.249545, 2.468158)"/>
  <path d="M 259.971 229.478 C 258.181 226.114 254.315 224.612 250.823 225.932 C 249.132 226.576 247.751 227.907 246.994 229.622 C 246.918 229.805 246.877 229.995 246.811 230.182 C 246.732 230.319 246.632 230.445 246.552 230.59 C 243.885 236.028 247.829 242.383 253.65 242.027 C 255.351 241.922 256.98 241.221 258.265 240.034 C 261.137 237.348 261.847 232.953 259.971 229.478 Z M 255.165 232.859 C 255.179 232.958 255.171 233.053 255.165 232.859 Z M 254.694 231.707 C 254.673 231.684 254.674 231.687 254.694 231.707 Z M 252.545 232.604 C 252.517 232.561 252.514 232.55 252.545 232.604 Z M 253.044 233.054 C 253.163 233.096 253.116 233.086 253.044 233.054 Z M 253.272 233.165 L 253.319 233.141 C 253.305 233.142 253.296 233.14 253.286 233.135 L 253.323 233.14 L 253.333 233.136 L 253.309 233.13 C 253.331 233.129 253.333 233.133 253.333 233.136 C 253.56 233.027 253.411 233.08 253.276 233.124 L 253.267 233.122 C 253.182 233.077 253.096 233.045 253.005 233.034 C 252.994 233.027 252.986 233.023 252.98 233.018 C 252.907 232.964 252.547 232.661 252.883 232.978 C 252.808 232.912 252.737 232.843 252.668 232.768 C 252.627 232.725 252.592 232.679 252.558 232.626 C 252.514 232.548 252.47 232.462 252.426 232.383 L 252.422 232.336 C 252.417 232.303 252.415 232.283 252.409 232.264 C 252.411 232.242 252.417 232.215 252.418 232.194 C 252.444 232.121 252.462 232.047 252.467 231.971 L 252.485 231.95 C 252.538 231.87 252.585 231.778 252.645 231.695 C 252.365 232.135 252.752 231.648 252.778 231.588 C 252.781 231.574 252.776 231.58 252.777 231.574 C 252.788 231.565 252.785 231.571 252.798 231.564 C 252.882 231.51 252.968 231.454 253.051 231.401 C 253.156 231.344 253.563 231.222 253.142 231.347 C 253.239 231.319 253.332 231.281 253.428 231.256 C 253.445 231.25 253.587 231.228 253.668 231.22 C 253.73 231.212 253.797 231.212 253.803 231.212 C 253.837 231.212 253.868 231.22 253.896 231.22 C 253.831 231.226 254.138 231.298 254.229 231.313 C 254.247 231.323 254.251 231.331 254.271 231.346 C 254.35 231.405 254.443 231.457 254.523 231.513 C 254.156 231.265 254.526 231.535 254.599 231.606 C 254.646 231.65 254.677 231.697 254.721 231.744 C 254.753 231.788 254.788 231.837 254.815 231.881 C 254.873 231.999 254.937 232.112 255.001 232.228 L 255.018 232.259 C 255.017 232.263 255.017 232.268 255.017 232.271 C 255.047 232.456 255.094 232.633 255.156 232.812 C 255.16 232.829 255.164 232.842 255.165 232.858 C 255.17 232.956 255.178 233.059 255.177 233.159 L 255.174 233.181 C 254.583 232.858 253.875 232.852 253.272 233.165 Z" fill="#e6e6e6" style="" transform="matrix(0.999953, -0.0097, 0.0097, 0.999953, -2.255442, 2.468561)"/>
  <path d="M 253.33 233.14 L 253.324 233.14 C 253.331 233.14 253.33 233.14 253.33 233.14 Z" fill="#e6e6e6" style="" transform="matrix(0.999953, -0.0097, 0.0097, 0.999953, -2.24954, 2.468241)"/>
  <polygon points="253.325 233.136 253.325 233.136 253.33 233.139 253.325 233.136" fill="#e6e6e6" style="" transform="matrix(0.999953, -0.0097, 0.0097, 0.999953, -2.249516, 2.468245)"/>
  <path d="M 253.33 233.139 C 253.338 233.14 253.33 233.14 253.33 233.14 L 253.33 233.139 Z" fill="#e6e6e6" style="" transform="matrix(0.999953, -0.0097, 0.0097, 0.999953, -2.249535, 2.468287)"/>
  <path fill="#e6e6e6" style=""/>
  <polygon points="332.091 250.949 332.091 250.949 332.092 250.952 332.091 250.949" fill="#e6e6e6" style="" transform="matrix(0.999953, -0.0097, 0.0097, 0.999953, -2.418596, 3.233094)"/>
  <path d="M 338.73 186.562 C 336.946 183.195 333.08 181.699 329.587 183.014 C 327.892 183.659 326.512 184.992 325.753 186.707 C 325.682 186.886 325.639 187.075 325.577 187.263 C 325.493 187.4 325.393 187.528 325.312 187.674 C 322.648 193.111 326.593 199.468 332.41 199.109 C 334.113 199.008 335.743 198.302 337.024 197.118 C 339.903 194.432 340.61 190.035 338.73 186.562 Z M 333.927 189.941 C 333.942 190.042 333.933 190.135 333.927 189.941 Z M 333.457 188.789 C 333.435 188.769 333.436 188.771 333.457 188.789 Z M 331.308 189.688 C 331.28 189.642 331.275 189.633 331.308 189.688 Z M 331.804 190.137 C 331.927 190.178 331.881 190.171 331.804 190.137 Z M 332.032 190.251 L 332.082 190.226 C 332.068 190.227 332.057 190.225 332.048 190.217 L 332.049 190.217 L 332.09 190.221 L 332.096 190.218 L 332.069 190.213 C 332.092 190.213 332.094 190.217 332.096 190.218 C 332.322 190.11 332.169 190.163 332.039 190.204 L 332.029 190.204 C 331.947 190.161 331.861 190.133 331.769 190.115 C 331.76 190.11 331.749 190.108 331.744 190.102 C 331.669 190.047 331.308 189.748 331.644 190.062 C 331.571 189.993 331.498 189.924 331.427 189.853 C 331.389 189.806 331.352 189.76 331.319 189.708 C 331.275 189.627 331.231 189.546 331.19 189.465 L 331.186 189.417 C 331.18 189.385 331.175 189.369 331.174 189.346 C 331.175 189.325 331.179 189.298 331.182 189.274 C 331.208 189.203 331.222 189.131 331.23 189.053 L 331.244 189.035 C 331.303 188.953 331.35 188.86 331.404 188.779 C 331.128 189.216 331.511 188.731 331.539 188.667 C 331.544 188.659 331.537 188.663 331.538 188.656 C 331.547 188.649 331.545 188.655 331.558 188.647 C 331.646 188.594 331.727 188.533 331.815 188.484 C 331.92 188.426 332.326 188.302 331.906 188.43 C 332.001 188.402 332.094 188.365 332.19 188.339 C 332.207 188.334 332.355 188.312 332.43 188.299 C 332.496 188.296 332.558 188.295 332.565 188.295 C 332.597 188.295 332.633 188.299 332.66 188.3 C 332.592 188.31 332.904 188.38 332.996 188.396 C 333.008 188.407 333.015 188.413 333.034 188.428 C 333.108 188.488 333.207 188.537 333.285 188.594 C 332.92 188.346 333.289 188.612 333.363 188.69 C 333.406 188.731 333.441 188.779 333.483 188.826 C 333.518 188.87 333.549 188.918 333.579 188.966 C 333.637 189.081 333.698 189.2 333.762 189.311 L 333.78 189.342 C 333.779 189.346 333.779 189.347 333.779 189.352 C 333.806 189.537 333.855 189.717 333.919 189.893 C 333.921 189.91 333.924 189.924 333.927 189.939 C 333.932 190.038 333.94 190.14 333.939 190.245 L 333.938 190.262 C 333.344 189.939 332.633 189.934 332.032 190.251 Z" fill="#e6e6e6" style="" transform="matrix(0.999953, -0.0097, 0.0097, 0.999953, -1.835442, 3.230534)"/>
  <polygon points="332.083 250.953 332.074 250.956 332.086 250.953 332.083 250.953" fill="#e6e6e6" style="" transform="matrix(0.999953, -0.0097, 0.0097, 0.999953, -2.418636, 3.232982)"/>
  <path d="M 332.092 250.952 L 332.093 250.952 L 332.092 250.952 Z" fill="#e6e6e6" style="" transform="matrix(0.999953, -0.0097, 0.0097, 0.999953, -2.418611, 3.233104)"/>
  <path d="M 332.092 250.953 L 332.086 250.953 C 332.096 250.956 332.092 250.953 332.092 250.953 Z" fill="#e6e6e6" style="" transform="matrix(0.999953, -0.0097, 0.0097, 0.999953, -2.418627, 3.233074)"/>
  <path d="M 332.093 250.952 C 332.101 250.952 332.093 250.952 332.092 250.953 L 332.093 250.952 Z" fill="#e6e6e6" style="" transform="matrix(0.999953, -0.0097, 0.0097, 0.999953, -2.418616, 3.233121)"/>
  <path d="M 418.762 292.959 C 416.978 289.591 413.112 288.093 409.62 289.408 C 407.923 290.056 406.54 291.386 405.786 293.102 C 405.718 293.279 405.666 293.472 405.608 293.657 C 405.523 293.798 405.422 293.922 405.349 294.068 C 402.682 299.507 406.624 305.863 412.442 305.505 C 414.147 305.401 415.774 304.697 417.06 303.516 C 419.934 300.827 420.645 296.433 418.762 292.959 Z M 413.957 296.337 C 413.972 296.439 413.966 296.529 413.957 296.337 Z M 413.485 295.183 C 413.469 295.164 413.47 295.166 413.485 295.183 Z M 411.335 296.081 C 411.306 296.037 411.305 296.029 411.335 296.081 Z M 411.839 296.532 C 411.959 296.573 411.911 296.564 411.839 296.532 Z M 412.065 296.644 L 412.116 296.619 C 412.104 296.62 412.09 296.618 412.08 296.613 L 412.12 296.617 L 412.129 296.613 L 412.106 296.609 C 412.124 296.607 412.129 296.613 412.129 296.613 C 412.355 296.506 412.201 296.558 412.068 296.599 L 412.062 296.597 C 411.98 296.556 411.889 296.522 411.8 296.508 C 411.795 296.506 411.781 296.503 411.775 296.497 C 411.704 296.442 411.339 296.143 411.678 296.457 C 411.602 296.389 411.529 296.321 411.462 296.246 C 411.419 296.204 411.383 296.157 411.35 296.105 C 411.305 296.026 411.262 295.942 411.219 295.861 L 411.214 295.817 C 411.21 295.779 411.207 295.765 411.203 295.744 C 411.204 295.717 411.209 295.695 411.212 295.668 C 411.241 295.598 411.256 295.523 411.262 295.45 L 411.277 295.429 C 411.329 295.35 411.381 295.26 411.434 295.173 C 411.156 295.609 411.542 295.126 411.573 295.061 C 411.58 295.051 411.569 295.059 411.572 295.05 C 411.581 295.047 411.58 295.05 411.592 295.043 C 411.678 294.989 411.76 294.928 411.85 294.883 C 411.952 294.82 412.359 294.697 411.933 294.824 C 412.031 294.795 412.126 294.763 412.222 294.735 C 412.239 294.728 412.379 294.706 412.453 294.694 C 412.525 294.691 412.589 294.689 412.599 294.689 C 412.63 294.689 412.661 294.694 412.694 294.696 C 412.622 294.705 412.934 294.777 413.023 294.793 C 413.038 294.801 413.044 294.806 413.063 294.823 C 413.141 294.884 413.238 294.933 413.315 294.993 C 412.951 294.741 413.323 295.009 413.393 295.083 C 413.434 295.128 413.471 295.175 413.513 295.223 C 413.547 295.264 413.579 295.312 413.607 295.362 C 413.667 295.475 413.732 295.594 413.793 295.705 L 413.811 295.737 C 413.809 295.739 413.809 295.747 413.809 295.748 C 413.841 295.933 413.887 296.116 413.949 296.289 C 413.955 296.305 413.957 296.319 413.957 296.332 C 413.963 296.437 413.969 296.534 413.968 296.636 L 413.967 296.655 C 413.374 296.332 412.666 296.33 412.065 296.644 Z" fill="#e6e6e6" style="" transform="matrix(0.999953, -0.0097, 0.0097, 0.999953, -2.86371, 4.011871)"/>
  <polygon points="412.116 209.044 412.111 209.044 412.122 209.044 412.116 209.044" fill="#e6e6e6" style="" transform="matrix(0.999953, -0.0097, 0.0097, 0.999953, -2.008338, 4.007365)"/>
  <path d="M 412.124 209.043 L 412.126 209.043 L 412.124 209.043 Z" fill="#e6e6e6" style="" transform="matrix(0.999953, -0.0097, 0.0097, 0.999953, -2.008328, 4.007447)"/>
  <path d="M 412.124 209.044 L 412.122 209.044 C 412.128 209.044 412.124 209.044 412.124 209.044 Z" fill="#e6e6e6" style="" transform="matrix(0.999953, -0.0097, 0.0097, 0.999953, -2.008338, 4.007434)"/>
  <path d="M 412.126 209.043 C 412.134 209.043 412.126 209.043 412.124 209.044 L 412.126 209.043 Z" fill="#e6e6e6" style="" transform="matrix(0.999953, -0.0097, 0.0097, 0.999953, -2.008333, 4.007464)"/>
  <polygon points="412.122 209.036 412.122 209.036 412.124 209.043 412.122 209.036" fill="#e6e6e6" style="" transform="matrix(0.999953, -0.0097, 0.0097, 0.999953, -2.008294, 4.007428)"/>
  <path d="M 487.074 234.852 L 487.075 234.852 L 487.074 234.852 Z" fill="#e6e6e6" style="" transform="matrix(0.999953, -0.0097, 0.0097, 0.999953, -2.25515, 4.735672)"/>
  <path d="M 493.714 231.194 C 491.931 227.826 488.06 226.329 484.57 227.645 C 482.876 228.287 481.49 229.622 480.738 231.339 C 480.666 231.516 480.62 231.706 480.56 231.89 C 480.476 232.034 480.373 232.157 480.3 232.305 C 477.629 237.741 481.577 244.097 487.392 243.74 C 489.096 243.636 490.724 242.937 492.008 241.752 C 494.884 239.062 495.591 234.666 493.714 231.194 Z M 488.908 234.573 C 488.925 234.672 488.916 234.766 488.908 234.573 Z M 488.435 233.421 C 488.42 233.397 488.421 233.401 488.435 233.421 Z M 486.29 234.318 C 486.257 234.273 486.256 234.266 486.29 234.318 Z M 486.79 234.769 C 486.91 234.809 486.861 234.801 486.79 234.769 Z M 487.015 234.881 L 487.065 234.857 C 487.052 234.858 487.038 234.856 487.03 234.847 L 487.033 234.847 L 487.071 234.854 L 487.079 234.849 L 487.053 234.844 C 487.076 234.842 487.079 234.847 487.079 234.849 C 487.306 234.741 487.156 234.796 487.022 234.834 L 487.011 234.833 C 486.933 234.791 486.839 234.761 486.749 234.745 C 486.74 234.741 486.73 234.738 486.728 234.734 C 486.652 234.678 486.29 234.377 486.628 234.693 C 486.555 234.624 486.48 234.554 486.412 234.483 C 486.372 234.437 486.334 234.391 486.304 234.339 C 486.256 234.259 486.214 234.178 486.17 234.096 L 486.167 234.051 C 486.16 234.016 486.157 234.001 486.153 233.977 C 486.157 233.955 486.159 233.931 486.164 233.905 C 486.188 233.836 486.206 233.761 486.211 233.685 L 486.228 233.663 C 486.282 233.587 486.332 233.494 486.386 233.409 C 486.107 233.846 486.492 233.36 486.525 233.298 C 486.529 233.287 486.521 233.297 486.521 233.285 C 486.532 233.279 486.53 233.284 486.545 233.279 C 486.631 233.225 486.711 233.164 486.799 233.115 C 486.903 233.054 487.309 232.933 486.886 233.063 C 486.987 233.032 487.076 232.997 487.173 232.969 C 487.19 232.965 487.333 232.943 487.411 232.93 C 487.474 232.925 487.544 232.925 487.548 232.925 C 487.579 232.925 487.612 232.93 487.643 232.932 C 487.575 232.943 487.887 233.011 487.98 233.026 C 487.992 233.037 487.996 233.043 488.015 233.056 C 488.094 233.117 488.189 233.171 488.27 233.226 C 487.902 232.975 488.273 233.245 488.344 233.319 C 488.383 233.361 488.424 233.41 488.466 233.456 C 488.499 233.498 488.53 233.549 488.56 233.598 C 488.617 233.709 488.683 233.831 488.743 233.943 L 488.763 233.972 C 488.76 233.976 488.76 233.977 488.76 233.984 C 488.792 234.165 488.841 234.349 488.902 234.524 C 488.906 234.539 488.908 234.553 488.908 234.568 C 488.916 234.672 488.918 234.771 488.917 234.874 L 488.916 234.892 C 488.328 234.568 487.616 234.564 487.015 234.881 Z" fill="#e6e6e6" style="" transform="matrix(0.999953, -0.0097, 0.0097, 0.999953, -2.261069, 4.735972)"/>
  <polygon points="487.064 234.854 487.057 234.857 487.073 234.854 487.064 234.854" fill="#e6e6e6" style="" transform="matrix(0.999953, -0.0097, 0.0097, 0.999953, -2.255184, 4.73558)"/>
  <polygon points="487.074 234.849 487.074 234.849 487.074 234.852 487.074 234.849" fill="#e6e6e6" style="" transform="matrix(0.999953, -0.0097, 0.0097, 0.999953, -2.255135, 4.735667)"/>
  <path d="M 487.075 234.852 C 487.082 234.852 487.075 234.852 487.074 234.854 L 487.075 234.852 Z" fill="#e6e6e6" style="" transform="matrix(0.999953, -0.0097, 0.0097, 0.999953, -2.255159, 4.735687)"/>
  <path d="M 487.074 234.854 L 487.073 234.854 C 487.078 234.856 487.074 234.854 487.074 234.854 Z" fill="#e6e6e6" style="" transform="matrix(0.999953, -0.0097, 0.0097, 0.999953, -2.255173, 4.735669)"/>
  <path d="M 466.497 296.149 L 407.393 299.579 C 406.391 299.639 405.716 298.542 406.18 297.608 C 406.375 297.219 406.727 296.95 407.138 296.88 L 467.612 286.615 L 466.497 296.149 Z" fill="#3f3d56" style="" transform="matrix(0.999953, -0.0097, 0.0097, 0.999953, -2.822502, 4.250955)"/>
  <path d="M 541.49 432.341 L 564.127 393.228 L 580.506 401.343 C 580.506 401.343 551.793 438.323 550.883 439.388 C 552.283 446.219 546.065 452.154 539.678 450.066 C 533.298 447.98 531.546 439.439 536.521 434.693 C 537.901 433.377 539.642 432.554 541.49 432.341 Z" fill="#ffb6b6" style="" transform="matrix(0.999953, -0.0097, 0.0097, 0.999953, -4.065828, 5.423479)"/>
  <path d="M 551.238 341.347 L 587.11 360.997 C 596.584 368.175 598.007 382.362 590.194 391.62 L 565.041 421.406 L 554.363 406.08 L 562.887 387.848 L 546.761 383.396 L 551.238 341.347 Z" style="fill: rgb(24, 99, 122);" transform="matrix(0.999953, -0.0097, 0.0097, 0.999953, -3.672489, 5.556669)"/>
  <path d="M 448.219 296.769 L 443.722 342.071 L 425.527 342.104 C 425.527 342.104 436.413 296 436.802 294.638 C 432.723 289.121 435.94 280.999 442.589 280.02 C 449.232 279.041 454.337 285.936 451.767 292.431 C 451.053 294.23 449.811 295.75 448.219 296.769 Z" fill="#ffb6b6" style="" transform="matrix(0.999953, -0.0097, 0.0097, 0.999953, -2.996196, 4.272794)"/>
  <path d="M 483.951 389.285 L 442.148 381.262 C 424.535 379.049 417.416 366.929 420.714 355.109 L 431.322 317.068 L 447.312 326.072 L 447.054 346.277 L 469.587 343.067 L 483.951 389.285 Z" style="fill: rgb(24, 99, 122);" transform="matrix(0.999953, -0.0097, 0.0097, 0.999953, -3.40455, 4.400444)"/>
  <polygon points="465.921 702.316 455.028 702.316 450.323 655.925 466.396 655.925 465.921 702.316" fill="#ffb6b6" style="" transform="matrix(0.999947, -0.01026, 0.01026, 0.999947, -6.943654, 4.738517)"/>
  <path d="M 471.769 718.098 L 433.976 718.098 L 433.981 717.502 C 434.078 707.344 440.735 699.114 448.862 699.114 L 448.863 699.114 L 455.824 692.566 L 468.643 699.114 L 471.94 699.114 L 471.769 718.098 Z" fill="#2f2e41" style="" transform="matrix(0.999947, -0.01026, 0.01026, 0.999947, -7.212869, 4.684477)"/>
  <polygon points="542.947 701.36 553.832 701.36 559.487 654.969 543.417 654.969 542.947 701.36" fill="#ffb6b6" style="" transform="matrix(0.999947, -0.01026, 0.01026, 0.999947, -6.928958, 5.691185)"/>
  <path d="M 542.855 718.72 L 580.643 718.72 L 580.651 718.12 C 580.744 707.923 574.231 699.655 566.103 699.655 L 559.261 693.085 L 546.321 699.655 L 543.025 699.655 L 542.855 718.72 Z" fill="#2f2e41" style="" transform="matrix(0.999947, -0.01026, 0.01026, 0.999947, -7.212996, 5.800749)"/>
  <path d="M 448.166 621.355 C 448.354 618.706 449.782 604.067 449.782 604.067 L 453.167 573.024 L 459.408 490.732 L 464.44 469.098 L 488.147 479.348 L 507.576 469.116 L 530.46 477.225 L 548.266 484.633 C 548.266 484.633 548.261 487.805 548.361 491.636 C 548.496 496.649 548.75 502.799 549.504 504.399 C 550.751 507.223 550.274 522.387 550.274 522.387 C 550.274 522.387 551.224 553.235 552.793 556.616 C 554.36 559.998 554.608 567.046 554.11 568.458 C 553.613 569.867 555.315 606.916 555.315 606.916 C 555.315 606.916 559.986 672.482 556.531 682.365 C 553.075 692.254 540.472 685.777 540.472 685.777 C 540.472 685.777 541.117 683.14 537.453 681.896 C 533.793 680.652 523.55 587.687 523.55 587.687 C 523.55 587.687 521.665 568.626 519.807 563.164 C 517.951 557.698 516.348 542.353 516.348 542.353 C 516.348 542.353 504.787 516.948 504.693 511.298 C 504.693 511.298 503.2 506.013 501.676 511.829 C 500.155 517.649 495.701 531.584 495.701 531.584 L 491.324 548.703 L 486.117 574.275 L 482.696 595.808 C 482.696 595.808 477.61 624.381 476.83 625.613 C 476.053 626.854 476.55 652.957 476.55 652.957 C 476.55 652.957 472.618 675.189 467.343 679.071 C 462.063 682.953 448.228 679.133 448.228 679.133 C 448.228 679.133 447.979 624 448.166 621.355 Z" fill="#2f2e41" style="" transform="matrix(0.999947, -0.01026, 0.01026, 0.999947, -5.908725, 5.190722)"/>
  <path d="M 468.968 400.534 L 465.329 444.075 L 460.444 449.304 C 458.582 451.291 458.663 454.477 460.616 456.318 L 457.906 461.088 L 456.817 476.122 C 455.621 481.108 459.059 485.953 463.961 486.191 L 547.303 490.285 C 552.17 490.523 556.107 486.098 555.515 481.045 L 548.964 425.3 L 549.005 421.134 L 545.909 413.083 L 547.796 386.118 L 552.014 343.314 L 530.009 337.363 L 518.136 328.768 L 497.356 329.115 L 484.643 339.928 L 467.807 342.678 L 455.07 345.317 L 453.414 348.996 L 456.657 348.261 L 467.936 396.08 L 468.968 400.534 Z" style="fill: rgb(29, 121, 150);" transform="matrix(0.999953, -0.0097, 0.0097, 0.999953, -3.948717, 4.912859)"/>
  <circle cx="449.158" cy="288.382" r="19.266" fill="#ffb6b6" style="" transform="matrix(1.270354, -0.012326, 0, 1.326907, -64.483414, -80.77845)"/>
  <path d="M 499.935 320.276 L 517.629 319.335 C 519.897 319.212 522.369 319.001 524.031 317.378 C 524.933 316.368 525.627 315.188 526.072 313.896 C 527.745 309.932 529.42 305.965 531.051 301.981 C 533.309 296.469 535.532 290.649 535.022 284.707 C 534.921 281.994 533.852 279.423 532.034 277.501 C 530.125 275.594 527.211 275.286 524.94 276.747 C 524.423 272.939 522.261 269.61 519.069 267.709 C 515.883 265.863 512.238 265.056 508.595 265.384 C 503.305 265.741 498.236 267.819 494.108 271.323 C 492.942 272.435 491.709 273.453 490.398 274.37 C 489.07 275.292 487.44 275.606 485.894 275.238 C 484.333 274.803 483.33 273.22 483.545 271.539 C 480.947 273.553 480.219 277.286 481.866 280.16 C 479.989 280.975 477.85 280.713 476.23 279.463 C 471.451 281.929 470.965 288.848 475.356 291.914 C 477.783 293.61 480.989 293.506 483.343 291.656 C 484.401 293.226 483.982 295.36 483.824 297.282 C 483.663 299.206 484.135 301.597 485.905 302.129 C 488.302 302.847 490.275 299.472 492.77 299.509 C 494.022 299.614 495.13 300.366 495.73 301.511 C 496.309 302.644 496.699 303.873 496.889 305.147 L 499.935 320.174" fill="#2f2e41" style="" transform="matrix(0.999953, -0.0097, 0.0097, 0.999953, -2.816407, 4.899816)"/>
  <path d="M 1017.818 551.208 C 1017.854 547.197 1016.817 543.94 1015.505 543.935 L 657.621 543.935 C 656.306 543.94 655.21 547.197 655.171 551.208 L 653.684 716.294 C 653.676 717.065 653.206 717.712 652.595 717.791 C 651.633 717.904 650.671 718.012 649.712 718.113 C 649.687 718.113 649.664 718.122 649.642 718.122 C 649.118 718.178 648.593 718.229 648.07 718.277 L 648.065 718.277 C 647.803 717.652 647.542 717.018 647.283 716.384 C 647.197 716.168 647.154 715.927 647.154 715.687 L 648.721 541.769 C 648.729 540.663 648.776 539.549 648.844 538.448 C 648.944 536.94 649.106 535.434 649.33 533.946 C 650.397 526.993 652.71 522.286 655.286 522.272 L 1018.227 522.272 C 1018.6 522.275 1018.972 522.376 1019.314 522.562 C 1019.818 522.844 1020.273 523.251 1020.649 523.754 C 1021.165 524.437 1021.606 525.204 1021.956 526.036 C 1023.399 529.748 1024.215 533.81 1024.348 537.954 C 1024.348 538.002 1024.354 538.045 1024.353 538.091 C 1024.425 539.303 1024.456 540.538 1024.439 541.769 L 1024.379 557.804 L 1024.344 567.367 L 1024.233 597.372 L 1024.2 608.028 L 1023.478 717.419 C 1023.469 718.243 1022.926 718.913 1022.272 718.913 L 1017.498 718.913 C 1016.842 718.913 1016.313 718.243 1016.321 717.419 L 1017.818 551.208 Z" fill="#e6e6e6" style="" transform="matrix(0.999947, -0.01026, 0.01026, 0.999947, -6.323291, 8.607967)"/>
  <path d="M 907.059 464.71 L 875.853 464.71 C 874.936 464.711 874.183 465.503 874.175 466.479 L 873.659 518.823 L 908.193 518.823 L 908.709 466.479 C 908.72 465.503 907.979 464.709 907.059 464.71 Z M 891.271 494.45 C 889.239 494.44 887.611 492.695 887.623 490.537 L 887.682 484.5 C 887.712 481.489 890.802 479.608 893.243 481.112 C 894.376 481.811 895.067 483.103 895.052 484.5 L 894.993 490.537 C 894.963 492.695 893.303 494.44 891.271 494.45 Z" fill="#ccc" style="" transform="matrix(0.999951, -0.009862, 0.009862, 0.999951, -4.806464, 8.812775)"/>
  <path d="M 872.074 519.635 L 872.026 524.684 C 872.02 525.23 872.431 525.672 872.944 525.672 L 905.835 525.672 C 906.344 525.669 906.761 525.23 906.771 524.684 L 906.822 519.635 L 872.074 519.635 Z" fill="#3f3d56" style="" transform="matrix(0.999951, -0.009862, 0.009862, 0.999951, -5.111157, 8.79692)"/>
  <path d="M 946.692 405.058 L 835.75 405.058 C 833.767 405.061 832.138 406.92 832.108 409.217 L 831.179 495.769 C 831.158 498.063 832.746 499.923 834.73 499.927 L 945.673 499.927 C 947.659 499.923 949.285 498.063 949.314 495.769 L 950.243 409.217 C 950.264 406.92 948.677 405.061 946.692 405.058 Z" fill="#e6e6e6" style="" transform="matrix(0.999942, -0.010739, 0.010739, 0.999942, -4.807957, 9.591443)"/>
  <path d="M 945.734 408.06 L 836.645 408.06 C 835.581 408.065 834.71 409.06 834.696 410.289 L 833.79 494.697 C 833.78 495.924 834.629 496.917 835.689 496.92 L 944.779 496.92 C 945.841 496.917 946.714 495.924 946.726 494.697 L 947.633 410.289 C 947.646 409.06 946.797 408.065 945.734 408.06 Z" fill="#fff" style="" transform="matrix(0.999942, -0.010739, 0.010739, 0.999942, -4.80793, 9.591448)"/>
  <path d="M 929.981 527.414 L 851.95 527.414 C 851.04 527.414 850.367 526.522 850.566 525.577 L 851.834 519.469 C 851.984 518.765 852.575 518.261 853.253 518.26 L 928.862 518.26 C 929.541 518.261 930.121 518.765 930.256 519.469 L 931.406 525.577 C 931.585 526.522 930.895 527.414 929.981 527.414 Z" fill="#ccc" style="" transform="matrix(0.999951, -0.009862, 0.009862, 0.999951, -5.112891, 8.8123)"/>
  <rect x="717.996" y="406.472" width="2.403" height="1.532" rx="0.488" fill="#e6e6e6" style="" transform="matrix(0.999951, -0.009862, 0, 1.000049, 135.802658, 120.319092)"/>
  <rect x="722.804" y="406.472" width="2.403" height="1.532" rx="0.488" fill="#e6e6e6" style="" transform="matrix(0.999951, -0.009862, 0, 1.000049, 135.802658, 120.319092)"/>
  <rect x="727.609" y="406.472" width="2.403" height="1.532" rx="0.488" fill="#e6e6e6" style="" transform="matrix(0.999951, -0.009862, 0, 1.000049, 135.802658, 120.319092)"/>
  <rect x="732.418" y="406.472" width="2.403" height="1.532" rx="0.488" fill="#e6e6e6" style="" transform="matrix(0.999951, -0.009862, 0, 1.000049, 135.802658, 120.319092)"/>
  <rect x="737.222" y="406.472" width="2.403" height="1.532" rx="0.488" fill="#e6e6e6" style="" transform="matrix(0.999951, -0.009862, 0, 1.000049, 135.802658, 120.319092)"/>
  <rect x="742.029" y="406.472" width="2.403" height="1.532" rx="0.488" fill="#e6e6e6" style="" transform="matrix(0.999951, -0.009862, 0, 1.000049, 135.802658, 120.319092)"/>
  <rect x="746.838" y="406.472" width="2.403" height="1.532" rx="0.488" fill="#e6e6e6" style="" transform="matrix(0.999951, -0.009862, 0, 1.000049, 135.802658, 120.319092)"/>
  <rect x="751.643" y="406.472" width="2.403" height="1.532" rx="0.488" fill="#e6e6e6" style="" transform="matrix(0.999951, -0.009862, 0, 1.000049, 135.802658, 120.319092)"/>
  <rect x="756.449" y="406.472" width="2.403" height="1.532" rx="0.488" fill="#e6e6e6" style="" transform="matrix(0.999951, -0.009862, 0, 1.000049, 135.802658, 120.319092)"/>
  <rect x="761.257" y="406.472" width="2.403" height="1.532" rx="0.488" fill="#e6e6e6" style="" transform="matrix(0.999951, -0.009862, 0, 1.000049, 135.802658, 120.319092)"/>
  <rect x="766.065" y="406.472" width="2.403" height="1.532" rx="0.488" fill="#e6e6e6" style="" transform="matrix(0.999951, -0.009862, 0, 1.000049, 135.802658, 120.319092)"/>
  <rect x="770.872" y="406.472" width="2.403" height="1.532" rx="0.488" fill="#e6e6e6" style="" transform="matrix(0.999951, -0.009862, 0, 1.000049, 135.802658, 120.319092)"/>
  <rect x="775.675" y="406.472" width="2.403" height="1.532" rx="0.488" fill="#e6e6e6" style="" transform="matrix(0.999951, -0.009862, 0, 1.000049, 135.802658, 120.319092)"/>
  <rect x="780.484" y="406.472" width="2.403" height="1.532" rx="0.488" fill="#e6e6e6" style="" transform="matrix(0.999951, -0.009862, 0, 1.000049, 135.802658, 120.319092)"/>
  <rect x="785.29" y="406.472" width="2.403" height="1.532" rx="0.488" fill="#e6e6e6" style="" transform="matrix(0.999951, -0.009862, 0, 1.000049, 135.802658, 120.319092)"/>
  <rect x="790.097" y="406.472" width="2.403" height="1.532" rx="0.488" fill="#e6e6e6" style="" transform="matrix(0.999951, -0.009862, 0, 1.000049, 135.802658, 120.319092)"/>
  <rect x="717.942" y="409.022" width="2.403" height="1.532" rx="0.488" fill="#e6e6e6" style="" transform="matrix(0.999951, -0.009862, 0, 1.000049, 135.802658, 120.319092)"/>
  <rect x="722.747" y="409.022" width="2.403" height="1.532" rx="0.488" fill="#e6e6e6" style="" transform="matrix(0.999951, -0.009862, 0, 1.000049, 135.802658, 120.319092)"/>
  <rect x="727.551" y="409.022" width="2.403" height="1.532" rx="0.488" fill="#e6e6e6" style="" transform="matrix(0.999951, -0.009862, 0, 1.000049, 135.802658, 120.319092)"/>
  <rect x="732.359" y="409.022" width="2.403" height="1.532" rx="0.488" fill="#e6e6e6" style="" transform="matrix(0.999951, -0.009862, 0, 1.000049, 135.802658, 120.319092)"/>
  <rect x="737.166" y="409.022" width="2.403" height="1.532" rx="0.488" fill="#e6e6e6" style="" transform="matrix(0.999951, -0.009862, 0, 1.000049, 135.802658, 120.319092)"/>
  <rect x="741.973" y="409.022" width="2.403" height="1.532" rx="0.488" fill="#e6e6e6" style="" transform="matrix(0.999951, -0.009862, 0, 1.000049, 135.802658, 120.319092)"/>
  <rect x="746.78" y="409.022" width="2.403" height="1.532" rx="0.488" fill="#e6e6e6" style="" transform="matrix(0.999951, -0.009862, 0, 1.000049, 135.802658, 120.319092)"/>
  <rect x="751.587" y="409.022" width="2.403" height="1.532" rx="0.488" fill="#e6e6e6" style="" transform="matrix(0.999951, -0.009862, 0, 1.000049, 135.802658, 120.319092)"/>
  <rect x="756.393" y="409.022" width="2.403" height="1.532" rx="0.488" fill="#e6e6e6" style="" transform="matrix(0.999951, -0.009862, 0, 1.000049, 135.802658, 120.319092)"/>
  <rect x="761.2" y="409.022" width="2.403" height="1.532" rx="0.488" fill="#e6e6e6" style="" transform="matrix(0.999951, -0.009862, 0, 1.000049, 135.802658, 120.319092)"/>
  <rect x="766.007" y="409.022" width="2.403" height="1.532" rx="0.488" fill="#e6e6e6" style="" transform="matrix(0.999951, -0.009862, 0, 1.000049, 135.802658, 120.319092)"/>
  <rect x="770.813" y="409.022" width="2.403" height="1.532" rx="0.488" fill="#e6e6e6" style="" transform="matrix(0.999951, -0.009862, 0, 1.000049, 135.802658, 120.319092)"/>
  <rect x="775.62" y="409.022" width="2.403" height="1.532" rx="0.488" fill="#e6e6e6" style="" transform="matrix(0.999951, -0.009862, 0, 1.000049, 135.802658, 120.319092)"/>
  <rect x="780.426" y="409.022" width="2.403" height="1.532" rx="0.488" fill="#e6e6e6" style="" transform="matrix(0.999951, -0.009862, 0, 1.000049, 135.802658, 120.319092)"/>
  <rect x="785.232" y="409.022" width="2.403" height="1.532" rx="0.488" fill="#e6e6e6" style="" transform="matrix(0.999951, -0.009862, 0, 1.000049, 135.802658, 120.319092)"/>
  <rect x="790.042" y="409.022" width="2.403" height="1.532" rx="0.488" fill="#e6e6e6" style="" transform="matrix(0.999951, -0.009862, 0, 1.000049, 135.802658, 120.319092)"/>
  <rect x="741.015" y="412.085" width="19.226" height="1.532" rx="0.488" fill="#e6e6e6" style="" transform="matrix(0.999951, -0.009862, 0, 1.000049, 135.802658, 120.319092)"/>
  <path d="M 939.769 419.708 L 837.692 419.708 C 837.38 419.701 837.199 419.305 837.365 418.994 C 837.438 418.858 837.566 418.774 837.705 418.769 L 939.779 418.769 C 940.09 418.779 940.272 419.174 940.108 419.482 C 940.036 419.622 939.907 419.705 939.769 419.708 Z" fill="#cacaca" style="" transform="matrix(0.999942, -0.010739, 0.010739, 0.999942, -4.450956, 9.568314)"/>
  <ellipse cx="812.457" cy="365.789" rx="2.379" ry="2.811" fill="#ccc" style="" transform="matrix(0.999942, -0.010739, 0, 1.000058, 32.235935, 56.954659)"/>
  <ellipse cx="823.942" cy="365.789" rx="2.257" ry="2.577" fill="#ccc" style="" transform="matrix(0.999946, -0.010375, 0, 1.000054, 28.844715, 56.447399)"/>
  <ellipse cx="835.431" cy="365.789" rx="2.257" ry="2.577" fill="#ccc" style="" transform="matrix(0.999946, -0.010375, 0, 1.000054, 25.155056, 56.485687)"/>
  <path d="M 934.828 410.982 L 928.992 410.982 C 928.65 410.99 928.441 411.424 928.614 411.757 C 928.689 411.909 928.827 412.001 928.981 412.005 L 934.816 412.005 C 935.158 411.997 935.367 411.567 935.194 411.232 C 935.119 411.08 934.98 410.987 934.828 410.982 Z" fill="#ccc" style="" transform="matrix(0.999942, -0.010739, 0.010739, 0.999942, -4.365293, 10.03145)"/>
  <path d="M 934.828 412.901 L 928.992 412.901 C 928.65 412.909 928.441 413.341 928.614 413.676 C 928.69 413.827 928.828 413.918 928.981 413.922 L 934.816 413.922 C 935.158 413.915 935.367 413.486 935.193 413.147 C 935.118 412.998 934.98 412.905 934.828 412.901 Z" fill="#ccc" style="" transform="matrix(0.999942, -0.010739, 0.010739, 0.999942, -4.38589, 10.031559)"/>
  <path d="M 934.828 414.819 L 928.992 414.819 C 928.65 414.825 928.441 415.255 928.614 415.593 C 928.689 415.743 928.827 415.835 928.981 415.839 L 934.816 415.839 C 935.158 415.832 935.367 415.4 935.194 415.064 C 935.119 414.914 934.98 414.821 934.828 414.819 Z" fill="#ccc" style="" transform="matrix(0.999942, -0.010739, 0.010739, 0.999942, -4.406482, 10.031671)"/>
  <rect x="587.431" y="263.183" width="15.395" height="3.678" rx="2.415" fill="#6c63ff" style="" transform="matrix(0.999946, -0.010375, 0, 1.000054, 293.451721, 185.389847)"/>
  <rect x="579.615" y="270.537" width="31.029" height="3.678" rx="2.415" fill="#e6e6e6" style="" transform="matrix(0.999946, -0.010375, 0, 1.000054, 293.451721, 185.389847)"/>
  <rect x="579.615" y="277.893" width="31.029" height="3.678" rx="2.415" fill="#e6e6e6" style="" transform="matrix(0.999946, -0.010375, 0, 1.000054, 293.451721, 185.389847)"/>
  <polygon points="627.926 621.663 618.147 616.469 632.118 571.072 646.553 578.735 627.926 621.663" fill="#ffb6b6" style="" transform="matrix(0.999947, -0.01026, 0.01026, 0.999947, -6.08545, 6.519304)"/>
  <path d="M 693.914 613.843 C 693.195 614.336 692.475 614.824 691.745 615.308 C 690.297 616.283 688.839 617.241 687.376 618.182 C 686.646 618.651 685.904 619.123 685.168 619.585 L 685.168 619.611 L 685.12 619.618 L 685.11 619.629 L 683.991 619.927 L 682.444 615.268 L 681.728 613.125 L 680.721 610.083 L 678.871 604.523 L 669.135 575.241 L 684.789 570.988 L 685.342 573.63 L 685.349 573.63 L 685.626 574.936 L 690.826 599.369 L 691.885 604.363 L 691.924 604.515 L 692.562 607.5 L 693.113 610.083 L 693.727 612.972 L 693.914 613.843 Z" fill="#ffb6b6" style="" transform="matrix(0.999947, -0.01026, 0.01026, 0.999947, -6.073525, 7.023788)"/>
  <path d="M 787.418 510.585 C 786.409 512.342 785.382 514.089 784.345 515.821 C 782.42 519.04 780.445 522.217 778.421 525.345 C 778.421 525.354 778.413 525.354 778.407 525.36 C 777.228 526.553 775.936 527.585 774.543 528.449 C 774.485 528.497 774.417 528.529 774.361 528.569 C 773.34 529.186 772.254 529.669 771.128 529.996 C 770.724 530.109 770.311 530.218 769.903 530.331 C 768.44 530.712 766.994 531.042 765.551 531.328 C 762.99 531.831 760.459 532.189 757.944 532.412 C 757.741 532.436 757.538 532.453 757.338 532.468 C 746.995 533.308 736.943 531.958 726.467 529.749 C 721.289 528.664 716.011 527.361 710.546 526.015 C 708.757 525.57 706.964 525.131 705.144 524.691 C 705.011 524.66 704.867 524.621 704.722 524.588 C 702.126 523.954 699.492 523.334 696.789 522.722 C 693.388 521.947 689.879 521.198 686.228 520.486 L 686.432 526.174 C 686.606 530.551 687.383 534.864 688.745 538.967 C 690.253 544.004 691.446 547.994 688.752 556.3 L 687.455 560.321 C 688.738 564.372 688.214 568.868 686.052 572.473 L 685.793 572.899 L 695.974 602.184 L 696.633 604.085 L 691.268 604.085 L 684.668 604.091 L 673.48 604.091 L 657.703 568.315 L 656.949 566.609 L 656.95 566.519 L 659.324 497.773 C 659.352 497.166 659.402 496.552 659.479 495.946 C 660.132 490.376 662.777 485.306 666.825 481.872 C 670.702 478.55 675.607 477.077 680.438 477.77 L 685.956 478.561 L 697.227 480.172 L 705.168 481.312 L 705.326 481.335 L 728.742 484.687 L 730.505 477.107 L 730.812 476.982 L 740.728 472.983 L 775.017 459.158 L 775.102 459.124 L 777.359 458.215 L 777.622 458.693 C 777.703 458.837 777.779 458.983 777.85 459.124 C 780.024 463.523 781.782 468.157 783.103 472.96 C 785.324 480.802 787.13 488.789 788.53 496.869 C 788.59 497.223 788.642 497.54 788.692 497.828 L 788.713 497.916 C 788.733 498.053 788.744 498.141 788.751 498.162 C 789.386 502.347 788.922 506.658 787.418 510.585 Z" fill="#2f2e41" style="" transform="matrix(0.999947, -0.01026, 0.01026, 0.999947, -5.411578, 7.445821)"/>
  <path d="M 788.979 485.404 C 788.876 484.894 788.748 484.376 788.61 483.874 C 787.5 480.066 786.2 476.332 784.718 472.686 C 783.057 468.538 781.06 464.094 778.674 459.287 C 777.519 456.956 776.278 454.531 774.951 452.018 C 774.286 450.758 773.592 449.472 772.875 448.165 C 772.847 448.102 772.813 448.044 772.78 447.986 L 772.576 447.601 L 738.737 452.596 L 726.135 454.458 L 725.315 461.382 L 725.116 463.102 C 725.109 463.102 725.109 463.102 725.116 463.107 L 724.565 467.784 L 724.565 467.789 L 723.828 473.965 L 723.771 473.958 L 705.127 471.282 L 685.914 468.532 L 675.598 467.056 C 670.766 466.357 665.86 467.838 661.983 471.157 C 657.938 474.59 655.291 479.662 654.638 485.229 C 654.568 485.789 654.519 486.366 654.491 486.93 L 644.478 512.45 C 638.487 527.717 634.604 543.864 632.962 560.354 L 625.555 585.606 L 626.574 585.709 L 641.71 587.265 L 645.705 587.68 L 654.665 573.471 C 655.688 571.851 656.657 570.18 657.564 568.476 C 659.055 565.688 660.383 562.798 661.544 559.828 L 681.115 509.724 C 682.59 510.004 684.045 510.27 685.486 510.522 C 692.153 511.716 698.556 512.695 704.695 513.45 C 724.653 515.916 741.961 516.106 757.384 514.016 C 761.712 513.436 765.905 512.668 769.955 511.716 C 771.436 511.375 772.904 511.006 774.351 510.612 C 774.69 510.522 775.024 510.435 775.353 510.335 C 781.438 508.611 786.346 503.597 788.38 497.031 C 789.582 493.284 789.788 489.253 788.979 485.404 Z" fill="#2f2e41" style="" transform="matrix(0.999947, -0.01026, 0.01026, 0.999947, -5.273755, 7.286297)"/>
  <path d="M 640.012 610.138 L 629.429 604.506 L 627.774 603.619 L 625.029 610.848 L 606.377 615.371 C 603.052 616.177 601.72 620.65 603.978 623.423 C 604.416 623.957 604.958 624.376 605.56 624.652 L 623.655 632.843 L 629.488 627.109 L 627.994 634.807 L 634.811 637.895 L 642.582 611.51 L 640.012 610.138 Z" fill="#2f2e41" style="" transform="matrix(0.999947, -0.01026, 0.01026, 0.999947, -6.336194, 6.42178)"/>
  <polygon points="696.716 602.455 697.377 604.357 696.695 604.357 696.716 602.455" fill="#2f2e41" style="" transform="matrix(0.999947, -0.01026, 0.01026, 0.999947, -6.154261, 7.183354)"/>
  <path d="M 693.188 604.84 L 681.996 609.104 L 680.236 609.772 L 682.874 616.979 L 672.352 634.655 C 670.476 637.807 672.366 641.985 675.757 642.176 C 676.415 642.212 677.068 642.088 677.68 641.808 L 695.901 633.5 L 696.434 624.944 L 700.264 631.515 L 707.127 628.384 L 695.909 603.804 L 693.188 604.84 Z" fill="#2f2e41" style="" transform="matrix(0.999947, -0.01026, 0.01026, 0.999947, -6.355627, 7.105724)"/>
  <path d="M 625.382 341.322 C 627.584 346.166 633.238 347.587 637.191 344.286 L 660.459 361.477 L 660.667 345.328 L 638.542 331.479 C 634.569 326.379 627.036 328 624.98 334.404 C 624.249 336.685 624.393 339.19 625.382 341.322 Z" fill="#ffb6b6" style="" transform="matrix(0.999947, -0.01026, 0.01026, 0.999947, -3.50556, 6.611169)"/>
  <path d="M 643.062 348.085 L 654.137 334.343 L 698.367 363.545 L 757.455 357.572 C 769.903 356.315 780.198 367.834 778.905 381.563 C 777.756 393.685 767.947 402.598 756.986 401.488 L 690.575 394.689 L 643.062 348.085 Z" style="fill: rgb(46, 186, 201);" transform="matrix(0.999947, -0.01026, 0.01026, 0.999947, -3.737869, 7.314627)"/>
  <path d="M 780.629 347.819 L 780.53 347.679 C 763.584 345.83 747.129 355.195 738.543 371.569 L 733.436 381.318 C 717.006 403.204 728.624 418.296 729.303 420.539 L 723.385 449.19 L 724.55 458.776 L 725.151 461.62 L 788.974 498.68 C 792.828 479.281 789.463 462.747 776.277 450.12 L 789.615 405.831 C 795.621 385.941 792.249 364.162 780.629 347.819 Z" style="fill: rgb(49, 199, 216);" transform="matrix(0.999947, -0.01026, 0.01026, 0.999947, -4.300743, 7.798958)"/>
  <path d="M 728.591 563.388 L 707.997 563.388 C 705.657 563.387 703.691 561.484 703.385 558.924 C 702.22 548.588 702.327 538.107 703.706 527.767 C 704.057 525.24 706.019 523.35 708.331 523.303 C 714.837 520.098 721.82 520.098 729.073 523.302 C 730.447 523.322 731.735 524.017 732.593 525.186 C 733.484 526.414 733.828 528.017 733.529 529.569 C 731.78 538.66 731.687 548.03 733.247 557.123 C 733.514 558.674 733.14 560.282 732.22 561.506 C 731.321 562.7 729.99 563.394 728.591 563.388 Z" style="fill: rgb(49, 199, 216);" transform="matrix(0.999947, -0.01026, 0.01026, 0.999947, -5.524599, 7.396345)"/>
  <path d="M 726.638 535.179 L 709.307 535.179 C 708.469 535.189 707.952 534.196 708.372 533.394 C 708.568 533.016 708.935 532.785 709.331 532.785 L 726.662 532.785 C 727.499 532.778 728.018 533.771 727.598 534.572 C 727.402 534.951 727.033 535.185 726.638 535.179 Z" fill="#fff" style="" transform="matrix(0.999947, -0.01026, 0.01026, 0.999947, -5.440867, 7.394635)"/>
  <path d="M 726.638 544.752 L 709.307 544.752 C 708.469 544.764 707.952 543.769 708.372 542.969 C 708.568 542.589 708.935 542.357 709.331 542.361 L 726.662 542.361 C 727.499 542.353 728.018 543.346 727.598 544.148 C 727.402 544.526 727.033 544.76 726.638 544.752 Z" fill="#fff" style="" transform="matrix(0.999947, -0.01026, 0.01026, 0.999947, -5.539102, 7.395139)"/>
  <path d="M 726.638 554.329 L 709.307 554.329 C 708.469 554.336 707.952 553.346 708.372 552.544 C 708.568 552.166 708.935 551.93 709.331 551.938 L 726.662 551.938 C 727.499 551.928 728.018 552.919 727.599 553.72 C 727.403 554.099 727.033 554.334 726.638 554.329 Z" fill="#fff" style="" transform="matrix(0.999947, -0.01026, 0.01026, 0.999947, -5.637361, 7.395646)"/>
  <path d="M 628.905 349.456 L 608.309 349.456 C 605.97 349.454 604.003 347.549 603.7 344.989 C 602.535 334.65 602.641 324.172 604.018 313.832 C 604.37 311.307 606.33 309.413 608.641 309.367 C 615.152 306.159 622.133 306.159 629.388 309.367 C 630.76 309.386 632.05 310.079 632.905 311.252 C 633.798 312.478 634.144 314.084 633.845 315.636 C 632.093 324.725 631.998 334.094 633.56 343.189 C 633.83 344.737 633.451 346.346 632.531 347.57 C 631.636 348.766 630.303 349.459 628.905 349.456 Z" style="fill: rgb(49, 199, 216);" transform="matrix(0.999947, -0.01026, 0.01026, 0.999947, -3.33487, 6.362316)"/>
  <path d="M 626.95 321.243 L 609.618 321.243 C 608.786 321.25 608.265 320.26 608.683 319.463 C 608.882 319.083 609.253 318.848 609.643 318.85 L 626.974 318.85 C 627.811 318.843 628.331 319.838 627.912 320.636 C 627.715 321.016 627.345 321.246 626.95 321.243 Z" fill="#fff" style="" transform="matrix(0.999947, -0.01026, 0.01026, 0.999947, -3.251135, 6.360585)"/>
  <path d="M 626.95 330.818 L 609.618 330.818 C 608.786 330.827 608.265 329.836 608.683 329.035 C 608.882 328.656 609.253 328.422 609.643 328.427 L 626.974 328.427 C 627.811 328.418 628.331 329.41 627.912 330.214 C 627.715 330.591 627.345 330.826 626.95 330.818 Z" fill="#fff" style="" transform="matrix(0.999947, -0.01026, 0.01026, 0.999947, -3.349385, 6.361089)"/>
  <path d="M 626.95 340.395 L 609.618 340.395 C 608.786 340.401 608.265 339.415 608.683 338.611 C 608.881 338.231 609.253 337.996 609.643 338.004 L 626.974 338.004 C 627.811 337.991 628.331 338.982 627.912 339.785 C 627.715 340.166 627.345 340.399 626.95 340.395 Z" fill="#fff" style="" transform="matrix(0.999947, -0.01026, 0.01026, 0.999947, -3.447644, 6.361593)"/>
  <path d="M 347.543 406.537 L 325.759 406.537 C 323.282 406.535 321.204 404.632 320.882 402.071 C 319.636 391.733 319.737 381.255 321.181 370.916 C 321.548 368.384 323.621 366.497 326.065 366.451 C 332.948 363.243 340.331 363.243 348.009 366.45 C 349.46 366.472 350.825 367.161 351.733 368.334 C 352.68 369.56 353.045 371.166 352.729 372.718 C 350.889 381.811 350.797 391.179 352.461 400.271 C 352.751 401.822 352.35 403.429 351.38 404.655 C 350.431 405.848 349.022 406.54 347.543 406.537 Z" style="fill: rgb(49, 199, 216);" transform="matrix(0.999953, -0.0097, 0.0097, 0.999953, -3.721494, 3.281485)"/>
  <path d="M 345.454 378.328 L 327.121 378.328 C 326.239 378.336 325.69 377.343 326.132 376.54 C 326.341 376.165 326.727 375.931 327.144 375.934 L 345.478 375.934 C 346.358 375.926 346.916 376.919 346.472 377.719 C 346.26 378.099 345.872 378.332 345.454 378.328 Z" fill="#fff" style="" transform="matrix(0.999953, -0.0097, 0.0097, 0.999953, -3.642349, 3.279871)"/>
  <path d="M 345.454 387.9 L 327.121 387.9 C 326.239 387.91 325.69 386.919 326.132 386.117 C 326.341 385.738 326.727 385.504 327.144 385.511 L 345.478 385.511 C 346.358 385.502 346.916 386.495 346.472 387.297 C 346.26 387.676 345.872 387.906 345.454 387.9 Z" fill="#fff" style="" transform="matrix(0.999953, -0.0097, 0.0097, 0.999953, -3.735221, 3.280322)"/>
  <path d="M 345.454 397.476 L 327.121 397.476 C 326.239 397.486 325.69 396.494 326.132 395.691 C 326.339 395.311 326.727 395.08 327.144 395.084 L 345.478 395.084 C 346.358 395.075 346.916 396.067 346.472 396.87 C 346.26 397.246 345.872 397.481 345.454 397.476 Z" fill="#fff" style="" transform="matrix(0.999953, -0.0097, 0.0097, 0.999953, -3.828095, 3.280772)"/>
  <path d="M 734.639 534.117 C 738.916 531.346 739.924 525.01 736.753 520.882 L 751.172 494.016 L 736.57 494.927 L 725.112 520.299 C 720.692 525.042 722.523 533.235 728.412 535.043 C 730.501 535.695 732.76 535.356 734.639 534.117 Z" fill="#ffb6b6" style="" transform="matrix(0.999947, -0.01026, 0.01026, 0.999947, -5.241955, 7.587857)"/>
  <path d="M 739.768 514.174 L 726.813 502.928 L 751.083 452.092 L 742.848 387.354 C 741.117 373.721 751.028 361.552 763.501 362.002 C 774.508 362.42 783.036 372.603 782.558 384.769 L 779.605 458.484 L 739.768 514.174 Z" style="fill: rgb(46, 186, 201);" transform="matrix(0.999947, -0.01026, 0.01026, 0.999947, -4.455, 7.766234)"/>
  <path d="M 179.522 501.911 C 183.268 498.021 182.766 491.574 178.475 488.448 L 192.595 418.708 L 177.704 423.684 L 166.289 491.141 C 162.866 496.995 166.762 504.452 173.299 504.565 C 175.627 504.604 177.876 503.646 179.522 501.911 Z" fill="#9e616a" style="" transform="matrix(0.999953, -0.0097, 0.0097, 0.999953, -4.469468, 1.756154)"/>
  <path d="M 200.334 354.31 L 191.196 347.041 C 191.196 347.041 183.073 346.443 181.49 361.752 C 179.897 377.054 176.653 406.879 176.653 406.879 L 161.899 475.063 L 181.363 479.533 L 197.176 405.954 L 206.442 384.106 L 200.334 354.31 Z" fill="#ccc" style="" transform="matrix(0.999953, -0.0097, 0.0097, 0.999953, -4.000204, 1.805897)"/>
  <polygon points="184.389 465.368 236.304 464.463 240.992 427.42 184.759 427.42 184.389 465.368" fill="#9e616a" style="" transform="matrix(0.999953, -0.0097, 0.0097, 0.999953, -4.320016, 2.084099)"/>
  <polygon points="228.898 693.068 240.229 693.068 246.116 644.797 229.393 644.798 228.898 693.068" fill="#9e616a" style="" transform="matrix(0.999947, -0.01026, 0.01026, 0.999947, -6.85075, 2.472033)"/>
  <polygon points="157.929 694.957 169.259 694.868 174.841 646.558 160.069 650.291 157.929 694.957" fill="#9e616a" style="" transform="matrix(0.999947, -0.01026, 0.01026, 0.999947, -6.873218, 1.742417)"/>
  <polygon points="193.833 395.466 191.047 402.841 191.517 410.217 244.47 429.437 242.149 397.166 236.242 389.796 193.833 395.466" fill="#ffb6b6" style="" transform="matrix(0.999953, -0.0097, 0.0097, 0.999953, -3.963035, 2.131528)"/>
  <circle cx="221.182" cy="296.036" r="14.939" fill="#9e616a" style="" transform="matrix(1.270354, -0.012326, 0, 1.326907, -64.483414, -80.77845)"/>
  <path d="M 226.488 686.833 L 244.406 685.652 L 244.317 694.129 L 261.213 707.121 C 264.227 709.434 263.803 714.512 260.45 716.261 C 259.804 716.598 259.101 716.772 258.392 716.772 L 237.069 716.772 L 233.48 708.387 L 231.96 716.772 L 223.921 716.772 L 226.488 686.833 Z" fill="#2f2e41" style="" transform="matrix(0.999947, -0.01026, 0.01026, 0.999947, -7.181618, 2.536045)"/>
  <path d="M 154.448 688.761 L 172.365 687.442 L 172.331 695.917 L 189.304 708.774 C 192.33 711.066 191.945 716.148 188.602 717.919 C 187.959 718.261 187.257 718.44 186.543 718.447 L 165.225 718.608 L 161.582 710.256 L 160.112 718.651 L 152.071 718.713 L 154.448 688.761 Z" fill="#2f2e41" style="" transform="matrix(0.999947, -0.01026, 0.01026, 0.999947, -7.204541, 1.798802)"/>
  <path d="M 153.642 657.576 L 162.637 584.737 L 173.239 507.938 C 166.201 493.192 182.856 447.403 182.856 447.403 L 185.142 447.524 L 236.74 458.302 L 236.73 458.245 C 246.979 490.112 250.319 505.853 249.395 539.784 L 246.06 661.767 L 246.711 661.767 C 249.858 661.767 251.788 665.534 250.184 668.545 C 249.437 669.943 248.078 670.804 246.619 670.804 L 226.171 670.804 C 223.023 670.81 221.087 667.05 222.689 664.03 C 223.434 662.629 224.797 661.764 226.265 661.767 L 226.792 661.767 L 209.51 516.526 L 192.975 577.51 L 174.164 657.016 C 180.726 655.21 179.666 659.397 179.644 661.769 C 179.616 664.263 177.766 666.284 175.506 666.284 L 155.057 666.284 C 151.914 666.291 149.988 662.528 151.583 659.519 C 152.057 658.638 152.781 657.951 153.642 657.576 Z" fill="#2f2e41" style="" transform="matrix(0.999947, -0.01026, 0.01026, 0.999947, -5.725832, 2.090517)"/>
  <path d="M 176.375 449.654 L 178.282 431.584 C 178.662 430.071 179.933 428.979 181.43 428.877 C 182.228 420.267 185.625 383.133 185.82 381.513 L 185.827 381.445 L 187.509 350.673 C 187.631 348.36 189.405 346.497 191.615 346.345 L 198.902 345.847 C 199.115 345.841 199.281 345.663 199.282 345.448 C 199.317 341.913 202.088 339.047 205.47 339.047 L 227.037 339.047 C 229.928 339.048 232.341 341.296 232.678 344.292 C 232.698 344.499 232.859 344.654 233.058 344.649 L 233.062 344.649 C 238.129 344.542 242.47 348.314 243.284 353.528 C 246.058 371.443 251.574 412.111 248.435 434.718 C 247.341 442.588 249.592 436.353 249.913 442.937 C 249.976 444.225 249.551 445.489 248.726 446.457 C 250.439 447.11 251.317 449.088 250.699 450.895 L 251.078 450.797 C 250.588 452.73 248.694 453.904 246.847 453.416 L 190.344 461.407 C 188.496 460.917 175.889 451.587 176.375 449.654 Z" fill="#ccc" style="" transform="matrix(0.999953, -0.0097, 0.0097, 0.999953, -3.872147, 2.09191)"/>
  <path d="M 327.7 375.26 C 326.141 380.517 320.429 383.078 315.761 380.603 L 293.741 401.4 L 291.003 385.398 L 312.337 368.156 C 315.722 362.279 323.885 362.359 327.039 368.307 C 328.165 370.421 328.401 372.936 327.7 375.26 Z" fill="#9e616a" style="" transform="matrix(0.999953, -0.0097, 0.0097, 0.999953, -3.696641, 3.020629)"/>
  <path d="M 251.94 359.745 C 251.94 359.745 244.509 341.79 234.869 345.36 C 225.229 348.927 230.02 366.35 230.02 366.35 L 265.559 423.151 C 265.559 423.151 317.958 388.272 311.628 388.025 C 305.303 387.779 303.526 375.755 303.526 375.755 L 275.87 390.113 L 274.993 385.004 L 273.481 386.562 L 269.662 383.395 L 251.94 359.745 Z" fill="#ccc" style="" transform="matrix(0.999953, -0.0097, 0.0097, 0.999953, -3.712275, 2.641859)"/>
  <circle cx="738.683" cy="298.721" r="20.857" fill="#ffb6b6" style="" transform="matrix(1.201061, -0.012326, 0, 1.326907, -122.143806, -75.76857)"/>
  <path d="M 853.674 347.648 C 850.737 352.171 846.482 355.451 841.634 356.935 C 839.693 357.569 837.692 357.942 835.677 358.048 C 835.453 355.53 834.886 353.071 833.987 350.755 C 834.053 353.219 833.718 355.686 832.994 358.034 C 829.97 357.843 827.022 356.967 824.325 355.462 C 818.969 352.465 815.23 346.841 814.237 340.276 C 813.255 332.708 816.436 325.274 817.639 317.715 C 818.843 310.158 816.824 300.585 810.146 298.603 C 805.065 297.088 805.629 297.737 801.351 301.217 C 805.687 308.421 789.127 334.819 782.482 332.52 C 778.727 331.218 776.351 327.397 775.572 327.397 C 770.235 337.367 779.931 354.168 769.95 357.658 L 770.775 356.753 C 776.863 348.599 764.493 331.335 770.579 323.179 C 772.276 320.895 774.091 318.193 773.624 315.308 C 773.184 312.567 769.256 311.118 768.077 313.37 C 770.207 308.112 767.215 301.105 762.154 299.754 C 757.658 298.552 757.726 300.035 753.194 300.676 C 752.925 298.517 752.39 296.41 751.619 294.413 C 751.678 296.569 751.427 298.721 750.877 300.796 C 749.28 300.76 747.744 300.144 746.51 299.043 C 742.85 295.757 743.665 288.862 746.998 285.099 C 750.334 281.337 755.245 279.983 759.93 279.108 C 761.394 268.658 787.502 267.567 790.859 278.008 C 792.411 270.212 801.29 266.163 808.13 268.583 C 814.975 271.004 819.666 278.087 822.101 285.556 C 824.532 293.017 825.151 301.044 826.616 308.82 C 828.082 316.592 830.611 324.512 835.937 329.809 C 841.261 335.102 850.009 336.858 855.724 331.94 C 857.34 337.208 856.58 343.043 853.674 347.648 Z" fill="#2f2e41" style="" transform="matrix(0.999947, -0.01026, 0.01026, 0.999947, -3.168913, 8.227898)"/>
  <path d="M 1002.966 453.379 L 1000.255 466.546 C 1000.051 467.553 999.839 468.577 999.606 469.594 C 997.469 469.14 995.243 469.268 993.155 469.962 C 994.779 472.377 996.232 474.908 997.498 477.54 C 995.827 482.635 993.401 487.346 989.392 490.754 C 983.95 495.28 976.627 496.594 970.074 494.222 L 970.192 493.702 C 966.019 485.223 968.457 474.537 973.85 466.708 C 976.598 462.847 979.842 459.38 983.494 456.399 C 987.108 453.343 991.016 450.602 994.883 447.897 C 998.248 445.549 1002.792 447.776 1003.068 451.91 C 1003.098 452.4 1003.065 452.896 1002.966 453.379 Z" style="fill: rgb(49, 199, 216);" transform="matrix(0.999947, -0.01026, 0.01026, 0.999947, -4.782255, 10.136866)"/>
  <path id="a7585634-9c2c-4d81-a429-c019b32aabf2-438" data-name="a4b268fa-75d0-4ac1-9d87-14bdca948464-2189" d="M 970.932 525.984 C 969.941 517.937 968.922 509.788 969.769 501.653 C 970.523 494.432 972.755 487.375 977.203 481.592 C 979.566 478.528 982.426 475.901 985.658 473.831 C 986.5 473.293 987.254 474.649 986.416 475.186 C 980.823 478.777 976.472 484.078 973.984 490.328 C 971.234 497.279 970.726 504.855 971.105 512.237 C 971.336 516.703 971.876 521.137 972.421 525.569 C 972.513 525.983 972.276 526.406 971.872 526.532 C 971.464 526.646 971.044 526.402 970.938 525.984 L 970.932 525.984 Z" fill="#f2f2f2" style="" transform="matrix(0.999947, -0.01026, 0.01026, 0.999947, -5.07989, 10.061814)"/>
  <path d="M 194.309 297.777 C 191.386 299.236 188.149 297.043 185.658 294.866 L 186.543 295.677 C 182.064 300.188 179.921 306.681 178.842 313.072 C 177.765 319.457 177.593 325.986 176.251 332.329 C 174.908 338.66 172.194 345.025 167.197 348.903 C 160.504 354.097 151.342 353.763 143.208 352.171 C 143.099 352.148 143.003 352.13 142.889 352.108 C 145.148 345.491 146.109 338.481 145.711 331.499 C 143.456 338.497 139.679 344.868 134.668 350.1 C 129.277 348.544 124.021 346.537 118.953 344.095 C 115.668 342.509 112.14 340.343 111.262 336.676 C 110.379 333.033 112.547 329.211 115.415 326.913 C 118.286 324.616 121.795 323.413 125.056 321.778 C 128.31 320.146 131.541 317.82 132.869 314.312 C 135.943 306.24 127.512 296.975 130.903 289.041 C 132.579 285.138 136.611 283.018 140.396 281.38 C 146.179 278.891 152.11 276.806 158.15 275.148 C 163.454 273.69 168.986 272.561 174.364 273.515 C 179.746 274.47 184.991 277.893 186.876 283.237 C 190.1 284.379 193.522 285.666 195.571 288.509 C 197.618 291.349 197.405 296.232 194.309 297.777 Z" fill="#2f2e41" style="" transform="matrix(0.999953, -0.0097, 0.0097, 0.999953, -3.030646, 1.508394)"/>
  <path d="M 220.376 287.87 C 212.116 281.006 205.37 282.175 200.136 286.44 C 199.272 285.427 195.531 288.22 194.273 287.82 L 189.634 296.74 C 187.255 301.057 186.251 305.46 186.606 307.939 C 182.173 320.555 192.306 329.073 204.347 333.572 C 209.147 335.379 214.403 335.46 219.287 333.797 L 219.459 331.65 L 220.352 333.41 C 220.352 333.41 231.163 357.158 233.763 358.225 C 232.221 353.936 228.245 333.549 227.119 329.297 C 225.578 323.515 226.758 314.329 227.755 308.695 C 228.372 305.223 228.441 301.674 227.946 298.194 L 227.924 298.037 L 230.457 303.488 L 236.287 299.681 C 234.136 292.939 234.174 284.879 220.376 287.87 Z" fill="#2f2e41" style="" transform="matrix(0.999953, -0.0097, 0.0097, 0.999953, -3.099927, 2.060966)"/>
  <rect x="962.617" y="508.495" width="14.435" height="19.318" style="fill: url(#gradient-0); stroke: rgba(255, 255, 255, 0);"/>
</svg>