<?xml version="1.0" encoding="utf-8"?>
<svg viewBox="0 0 1110 720" xmlns="http://www.w3.org/2000/svg">
  <polygon points="722.53 149.574 655.657 149.574 655.657 42.861 722.53 64.205 722.53 149.574" fill="#2f2e41" style=""/>
  <g transform="matrix(1.381986, 0, 0, 1.381986, 71.881561, 12.131677)" style="stroke-width: 1.09952; vector-effect: non-scaling-stroke;">
    <polygon points="485.19781 487.15109 475.21198 487.38674 469.64572 442.52422 484.38226 442.1755 485.19781 487.15109" fill="#a0616a"/>
    <path d="M450.93774,507.98449h0c0,1.68692,1.19714,3.05447,2.67392,3.05447h19.82098s1.95056-7.8407,9.90323-11.21497l.54886,11.21497h10.22495l-1.23886-18.03317s2.73523-9.6478-2.94525-14.5795c-5.68054-4.93167-1.07953-4.24515-1.07953-4.24515l-2.23462-11.16116-15.45102,1.81693-.11362,17.52042-7.49826,17.39066-10.99814,5.43289c-.97888,.48355-1.61258,1.5853-1.61258,2.80356l-.00012,.00003,.00006,.00003Z" fill="#2f2e41"/>
  </g>
  <g transform="matrix(1.381986, 0, 0, 1.381986, 71.881561, 12.131677)" style="stroke-width: 1.09952; vector-effect: non-scaling-stroke;">
    <polygon points="434.01981 487.15109 424.034 487.38674 418.46774 442.52422 433.20428 442.1755 434.01981 487.15109" fill="#a0616a"/>
    <path d="M399.75974,507.98449h0c0,1.68692,1.19714,3.05447,2.67392,3.05447h19.82098s1.95056-7.8407,9.90323-11.21497l.54886,11.21497h10.22498l-1.23886-18.03317s2.73523-9.6478-2.94525-14.5795c-5.68054-4.93167-1.07953-4.24515-1.07953-4.24515l-2.23462-11.16116-15.45102,1.81693-.11362,17.52042-7.49826,17.39066-10.99814,5.43289c-.97888,.48355-1.61258,1.5853-1.61258,2.80356l-.00012,.00003,.00003,.00003Z" fill="#2f2e41"/>
  </g>
  <path d="M 734.816 260.233 L 646.599 312.877 L 626.681 393.978 L 636.64 644.394 L 680.323 644.394 L 689.996 403.227 L 709.361 644.394 L 753.726 644.394 L 764.947 373.573 C 768.036 353.89 765.6 333.738 757.903 315.361 L 734.816 260.233 Z" fill="#2f2e41" style="stroke-width: 0.805556; vector-effect: non-scaling-stroke;"/>
  <path d="M 714.895 99.456 L 677.903 96.609 L 667.943 116.53 L 639.484 123.642 L 632.371 211.857 C 646.444 248.423 655.28 283.363 646.599 312.877 L 754.734 307.188 L 736.68 258.367 C 736.68 258.367 736.238 240.313 746.198 216.126 C 756.157 191.939 740.506 129.335 740.506 129.335 L 717.74 123.642 L 714.895 99.456 Z" style="fill: rgb(35, 146, 158); stroke-width: 0.805556; vector-effect: non-scaling-stroke;"/>
  <g transform="matrix(1.381986, 0, 0, 1.381986, 71.881561, 12.131677)" style="stroke-width: 1.09952; vector-effect: non-scaling-stroke;">
    <path d="M285.04523,88.01722c2.60648,.08077,5.01508-.43385,6.90954-1.35578l24.78147,2.33778,.76745-11.82457-25.22097-1.09834c-1.83374-1.03748-4.20587-1.70024-6.81235-1.781-5.95447-.1845-10.87667,2.73767-10.99407,6.52688s4.61443,7.0105,10.56888,7.19503h.00004Z" style="fill: rgb(35, 146, 158);"/>
    <path d="M431.63758,124.1151s-.87513-37.66936-9.13728-43.3234c-3.40733-2.33173-55.79835-2.86144-57.70688-3.05922-11.7705-1.21982-20.14619-5.89291-30.05665-6.40513-24.15143-1.24822-36.36142,4.61263-36.36142,4.61263l-.4261,12.09401,133.68833,36.08112h0Z" style="fill: rgb(35, 146, 158);"/>
  </g>
  <circle id="b" cx="693.248" cy="65.722" r="29.539" fill="#a0616a" style="stroke-width: 0.805556; vector-effect: non-scaling-stroke;"/>
  <path d="M 684.288 21.738 C 677.934 25.742 673.28 22.874 668.744 24.895 C 659.877 28.841 644.907 56.559 646.258 68.166 C 648.169 84.599 654.21 85.277 654.029 97.068 C 653.74 116.002 652.235 115.924 656.112 122.535 C 660.425 129.889 684.852 127.893 689.39 117.921 C 690.283 115.955 680.345 116.727 669.366 90.918 C 663.854 77.968 667.472 66.166 669.366 61.039 C 669.807 59.839 670.011 51.318 670.958 52.263 C 679.248 60.556 683.896 54.495 688.903 53.798 C 699.18 52.371 706.917 60.661 710.034 57.685 C 712.354 55.469 709.394 49.616 710.52 49.182 C 711.72 48.724 715.693 55.148 718.291 62.058 C 719.969 66.511 720.809 68.74 720.722 71.285 C 720.452 79.15 718.448 101.449 714.895 107.993 C 707.222 122.121 716.884 127.452 722.908 126.423 C 727.774 125.59 749.289 128.866 750.466 126.489 C 751.515 124.37 749.119 102.583 746.6 82.326 C 743.574 57.979 731.444 35.606 712.428 20.107 C 711.313 19.198 710.479 18.576 710.034 18.336 C 708.981 17.772 698.122 12.132 690.118 16.636 C 687.172 18.294 687.651 19.617 684.288 21.738 Z" fill="#2f2e41" style="stroke-width: 0.805556; vector-effect: non-scaling-stroke;"/>
  <g transform="matrix(1.381986, 0, 0, 1.381986, 71.881561, 12.131677)" style="stroke-width: 1.09952; vector-effect: non-scaling-stroke;">
    <polygon points="176.13661 503.83715 164.2775 503.83599 158.63605 458.09316 176.13899 458.09438 176.13661 503.83715" fill="#ffb6b6"/>
    <path d="M135.50577,503.56811h0c-.36925,.62189-.56409,2.62906-.56409,3.35226h0c0,2.22293,1.80202,4.02502,4.02502,4.02502h36.72632c1.51648,0,2.7459-1.22934,2.7459-2.74591v-1.52902s1.8168-4.59555-1.92369-10.2598c0,0-4.64894,4.43521-11.59566-2.51151l-2.04852-3.71106-14.82851,10.84482-8.21921,1.01172c-1.7982,.22131-3.39246-.03436-4.31743,1.52347h-.00014Z" fill="#2f2e41"/>
  </g>
  <g transform="matrix(1.381986, 0, 0, 1.381986, 71.881561, 12.131677)" style="stroke-width: 1.09952; vector-effect: non-scaling-stroke;">
    <polygon points="226.13661 503.83715 214.2775 503.83599 208.63605 458.09316 226.13899 458.09438 226.13661 503.83715" fill="#ffb6b6"/>
    <path d="M185.50577,503.56811h0c-.36925,.62189-.56409,2.62906-.56409,3.35226h0c0,2.22293,1.80202,4.02502,4.02502,4.02502h36.72632c1.51648,0,2.7459-1.22934,2.7459-2.74591v-1.52902s1.8168-4.59555-1.92369-10.2598c0,0-4.64894,4.43521-11.59566-2.51151l-2.04852-3.71106-14.82851,10.84482-8.21921,1.01172c-1.7982,.22131-3.39246-.03436-4.31743,1.52347h-.00014Z" fill="#2f2e41"/>
  </g>
  <polygon points="387.65 309.313 267.417 307.931 254.98 386.704 285.382 658.954 325.243 658.954 334.443 405.361 351.027 663.791 391.839 663.791 410.451 369.429 387.65 309.313" fill="#2f2e41" style="stroke-width: 0.805556; vector-effect: non-scaling-stroke;"/>
  <path d="M 897.371 697.57 C 900.226 697.748 901.804 694.202 899.644 692.134 L 899.429 691.28 C 899.457 691.211 899.486 691.143 899.514 691.075 C 902.401 684.19 912.186 684.237 915.05 691.132 C 917.59 697.252 920.825 703.382 921.622 709.853 C 921.979 712.709 921.818 715.619 921.185 718.422 C 927.138 705.417 930.271 691.215 930.271 676.934 C 930.271 673.345 930.075 669.756 929.674 666.178 C 929.343 663.249 928.887 660.34 928.298 657.457 C 925.112 641.872 918.212 627.028 908.26 614.629 C 903.475 612.014 899.486 607.926 897.075 603.026 C 896.21 601.258 895.531 599.357 895.21 597.42 C 895.754 597.491 897.263 589.199 896.852 588.69 C 897.611 587.539 898.969 586.967 899.798 585.843 C 903.919 580.255 909.598 581.231 912.562 588.824 C 918.895 592.02 918.956 597.321 915.071 602.418 C 912.598 605.663 912.258 610.051 910.089 613.523 C 910.313 613.809 910.545 614.085 910.768 614.371 C 914.86 619.619 918.4 625.261 921.383 631.188 C 920.54 624.601 921.785 616.665 923.907 611.55 C 926.324 605.722 930.852 600.814 934.839 595.775 C 939.629 589.723 949.451 592.364 950.295 600.036 C 950.304 600.11 950.312 600.184 950.319 600.258 C 949.727 600.593 949.147 600.948 948.58 601.322 C 945.347 603.46 946.464 608.473 950.295 609.064 L 950.382 609.078 C 950.168 611.211 949.802 613.327 949.266 615.407 C 954.382 635.19 943.337 642.397 927.567 642.72 C 927.219 642.899 926.88 643.077 926.532 643.246 C 928.129 647.746 929.405 652.36 930.352 657.037 C 931.2 661.17 931.789 665.347 932.119 669.543 C 932.53 674.836 932.494 680.156 932.048 685.44 L 932.074 685.252 C 933.208 679.432 936.368 673.997 940.956 670.23 C 947.79 664.616 957.447 662.548 964.82 658.035 C 968.37 655.863 972.918 658.67 972.299 662.786 L 972.269 662.982 C 971.171 663.429 970.1 663.946 969.064 664.527 C 968.472 664.86 967.892 665.215 967.325 665.591 C 964.092 667.729 965.209 672.741 969.04 673.332 L 969.127 673.345 C 969.189 673.354 969.242 673.363 969.305 673.372 C 967.422 677.843 964.798 681.994 961.513 685.574 C 958.314 702.845 944.575 704.484 929.879 699.454 L 929.87 699.454 C 928.263 706.453 925.916 713.289 922.898 719.805 L 897.995 719.805 C 897.906 719.529 897.826 719.243 897.745 718.967 C 900.048 719.109 902.368 718.976 904.635 718.556 C 902.788 716.289 900.94 714.004 899.093 711.736 C 899.048 711.691 899.012 711.647 898.977 711.602 C 898.039 710.442 897.093 709.291 896.156 708.131 L 896.156 708.129 C 896.096 704.567 896.524 701.016 897.37 697.571 L 897.371 697.57 Z" fill="#f2f2f2" style="stroke-width: 1.09952; vector-effect: non-scaling-stroke;"/>
  <polygon points="346.881 102.704 304.087 102.704 295.748 119.288 254.98 138.013 269.49 245.05 258.432 315.531 396.538 315.531 384.194 233.995 400.778 135.872 355.174 117.908 346.881 102.704" fill="#e6e6e6" style="stroke-width: 0.805556; vector-effect: non-scaling-stroke;"/>
  <path d="M 490.12 362.08 C 488.255 358.273 487.403 354.359 487.499 350.936 L 467.428 315.784 L 484.434 306.723 L 502.963 343.355 C 505.728 345.376 508.301 348.447 510.167 352.254 C 514.429 360.954 513.399 370.205 507.864 372.918 C 502.328 375.632 494.385 370.778 490.12 362.08 Z" fill="#ffb6b6" style="stroke-width: 0.805556; vector-effect: non-scaling-stroke;"/>
  <path d="M 357.825 131.156 C 357.825 131.156 371.365 117.225 386.555 126.919 C 401.744 136.615 457.15 235.818 457.15 235.818 L 499.892 321.105 L 469.722 335.158 L 433.325 253.491 L 356.888 171.233 L 357.825 131.156 Z" fill="#e6e6e6" style="stroke-width: 0.805556; vector-effect: non-scaling-stroke;"/>
  <circle cx="323.671" cy="55.982" r="38.641" fill="#ffb6b6" style="stroke-width: 0.805556; vector-effect: non-scaling-stroke;"/>
  <path d="M 311.546 87.08 C 311.723 90.866 311.813 92.759 311.232 92.987 C 309.482 93.674 286.936 80.363 284.285 71.498 C 283.047 67.365 284.091 67.282 283.185 55.523 C 282.322 44.276 281.354 44.187 282.499 41.403 C 283.773 38.31 287.662 34.501 295.438 26.877 C 298.379 23.997 299.849 22.554 300.778 21.811 C 303.59 19.553 314.069 11.142 323.679 12.227 C 327.707 12.685 327.018 14.292 342.068 22.452 C 343.362 23.155 345.101 24.082 347.501 25.148 C 353.339 27.738 356.96 28.412 358.866 29.132 C 370.421 33.511 367.032 57.904 366.039 58.042 C 365.676 58.094 365.578 54.931 363.681 54.669 C 361.975 54.436 360.887 56.836 359.335 56.925 C 355.101 57.161 359.805 53.108 349.437 48.603 C 345.405 46.852 356.622 54.747 345.945 54.619 C 329.248 54.417 339.928 55.482 333.588 58.813 C 328.963 61.24 310.36 47.873 311.116 52.146 C 311.65 55.157 313.836 56.024 313.52 59.4 C 313.215 62.669 310.758 66.194 308.59 66.323 C 306.591 66.444 305.497 63.639 304.831 63.907 C 304.106 64.199 304.903 67.718 306.465 71.333 C 308.45 75.921 309.635 75.957 310.681 79.486 C 311.283 81.516 311.371 83.37 311.546 87.08 Z" fill="#2f2e41" style="stroke-width: 0.805556; vector-effect: non-scaling-stroke;"/>
  <path d="M 616.101 350.734 L 367.124 287.388 C 351.208 283.338 341.554 267.097 345.603 251.18 L 376.578 129.44 C 380.627 113.525 396.869 103.87 412.786 107.92 L 661.762 171.265 C 677.677 175.316 687.331 191.559 683.281 207.473 L 652.308 329.214 C 648.257 345.129 632.013 354.783 616.101 350.734 Z" fill="#fff" style="stroke-width: 0.805556; vector-effect: non-scaling-stroke;"/>
  <path d="M 616.101 350.734 L 367.124 287.388 C 359.166 285.363 352.774 280.29 348.207 273.563 C 341.564 263.778 339.829 251.455 342.747 239.991 L 368.721 137.902 C 371.638 126.44 379.05 116.445 389.561 111.022 C 396.787 107.296 404.828 105.896 412.786 107.92 L 661.762 171.265 C 677.703 175.322 687.338 191.532 683.281 207.473 L 652.308 329.214 C 648.257 345.129 632.013 354.783 616.101 350.734 Z M 412.104 110.598 C 397.641 106.919 401.422 120.016 397.744 134.477 C 379.791 205.035 416.92 277.98 484.543 304.957 C 521.045 319.518 551.408 331.423 551.408 331.423 C 601.975 344.288 653.397 313.726 666.262 263.16 L 680.604 206.792 C 684.282 192.33 675.542 177.624 661.08 173.945 L 412.104 110.598 Z" fill="#3f3d56" style="stroke-width: 0.805556; vector-effect: non-scaling-stroke;"/>
  <path d="M 528.597 206.534 C 526.864 192.27 513.895 182.114 499.632 183.849 L 499.631 183.849 C 485.504 185.568 475.413 198.31 476.912 212.411 L 476.496 212.462 L 482.779 264.111 L 530.306 258.33 C 531.809 258.412 533.336 258.369 534.882 258.183 C 549.145 256.447 559.299 243.48 557.563 229.217 C 555.83 214.955 542.862 204.798 528.597 206.534 Z" style="fill: rgb(248, 141, 104); stroke-width: 0.805556; vector-effect: non-scaling-stroke;"/>
  <path d="M 437.499 694.45 C 435.487 689.263 429.65 686.69 424.462 688.702 C 419.326 690.696 416.756 696.441 418.662 701.59 L 418.511 701.65 L 425.802 720.433 L 443.087 713.723 C 443.658 713.612 444.227 713.45 444.788 713.232 C 449.976 711.219 452.55 705.381 450.535 700.195 C 448.523 695.009 442.686 692.437 437.499 694.45 Z" fill="#e6e6e6" style="stroke-width: 0.805556; vector-effect: non-scaling-stroke;"/>
  <path d="M 824.454 694.45 C 822.442 689.263 816.605 686.69 811.418 688.702 C 806.283 690.696 803.712 696.441 805.619 701.59 L 805.469 701.65 L 812.758 720.433 L 830.042 713.723 C 830.613 713.612 831.183 713.45 831.745 713.232 C 836.931 711.219 839.504 705.381 837.493 700.195 C 835.479 695.009 829.642 692.437 824.454 694.45 Z" fill="#e6e6e6" style="stroke-width: 0.805556; vector-effect: non-scaling-stroke;"/>
  <circle cx="508.191" cy="322.229" r="33.168" style="fill: rgb(248, 141, 104); stroke-width: 0.805556; vector-effect: non-scaling-stroke;"/>
  <path d="M 357.415 187.718 C 353.857 190.023 350.071 191.334 346.659 191.645 L 314.144 215.751 L 303.125 199.943 L 337.296 177.192 C 338.974 174.205 341.718 171.287 345.277 168.98 C 353.407 163.713 362.717 163.637 366.067 168.813 C 369.419 173.985 365.545 182.45 357.415 187.717 L 357.415 187.718 Z" fill="#ffb6b6" style="stroke-width: 0.805556; vector-effect: non-scaling-stroke;"/>
  <path d="M 281.257 131.465 C 281.257 131.465 256.381 128.7 252.235 138.374 C 248.09 148.049 239.797 244.787 239.797 244.787 L 253.617 268.28 L 344.246 199.691 L 325.894 181.336 L 287.052 199.691 L 281.257 131.465 Z" fill="#e6e6e6" style="stroke-width: 0.805556; vector-effect: non-scaling-stroke;"/>
  <g transform="matrix(1.381986, 0, 0, 1.381986, 71.881561, 12.131677)" style="stroke-width: 1.09952; vector-effect: non-scaling-stroke;">
    <path d="M412.21765,108.9675c2.13898,2.19999,4.5975,3.73446,6.95416,4.50389l19.05283,22.24487,10.31979-9.37574-20.43829-21.55572c-.70285-2.37739-2.1676-4.87808-4.30658-7.07807-4.88651-5.02587-11.44046-6.57928-14.6387-3.46969-3.19827,3.10959-1.82968,9.70462,3.05679,14.73047h0Z" fill="#a0616a"/>
    <path d="M475.0062,81.5578s17.99335,2.05887,19.3591,9.55119-8.37411,77.07058-8.37411,77.07058l-13.53482,14.34604-52.8786-62.99034,15.90439-9.98926,24.44208,19.20599,15.08194-47.1942h.00003Z" style="fill: rgb(35, 146, 158);"/>
  </g>
  <circle cx="393.045" cy="215.751" r="20.735" fill="#e6e6e6" style="stroke-width: 0.805556; vector-effect: non-scaling-stroke;"/>
</svg>